<svg width="118" height="120" viewBox="0 0 118 120" fill="none" xmlns="http://www.w3.org/2000/svg">
<path d="M111.435 58.3814C111.435 29.4787 87.8426 6.04443 58.7446 6.04443C29.6359 6.04443 6.05371 29.4787 6.05371 58.3814C6.05371 75.6769 14.5121 91.0135 27.5371 100.546H18.003C12.793 100.546 8.52162 104.779 8.52162 109.964V110.017C8.52162 115.192 12.7824 119.434 18.003 119.434H99.4861C104.696 119.434 108.967 115.202 108.967 110.017V109.964C108.967 104.789 104.707 100.546 99.4861 100.546H89.952C102.977 91.0135 111.435 75.6874 111.435 58.3814Z" fill="url(#paint0_linear_1229_110)"/>
<path d="M99.6342 120H15.7043C12.9938 120 11.106 117.622 11.106 115.495C11.106 112.782 13.268 111.158 15.3562 111.158C15.6726 111.158 15.9258 111.41 15.9258 111.724C15.9258 112.038 15.6726 112.29 15.3562 112.29C13.827 112.29 12.245 113.495 12.245 115.495C12.245 116.91 13.5633 118.869 15.7043 118.869H99.6342C104.865 118.869 108.662 115.097 108.662 109.901C108.662 104.705 104.612 100.934 99.6342 100.934H45.9309C42.7774 100.934 40.2146 98.3885 40.2146 95.2562V93.7582C40.2146 93.4439 40.4677 93.1925 40.7841 93.1925C41.1005 93.1925 41.3536 93.4439 41.3536 93.7582V95.2562C41.3536 97.7599 43.4102 99.8027 45.9309 99.8027H99.6447C105.256 99.8027 109.812 104.339 109.812 109.901C109.812 115.757 105.54 120 99.6447 120H99.6342Z" fill="white"/>
<path d="M18.1188 110.163C18.6566 110.446 18.9309 110.897 18.9309 111.494C18.9309 111.997 18.741 112.405 18.3508 112.719C17.9711 113.034 17.4754 113.191 16.8637 113.191C15.8091 113.191 15.1024 112.751 14.7544 111.86L15.7141 111.326C15.8829 111.871 16.2731 112.143 16.8637 112.143C17.1696 112.143 17.4016 112.08 17.5703 111.955C17.7285 111.829 17.8129 111.651 17.8129 111.431C17.8129 111.211 17.7285 111.033 17.5703 110.907C17.4121 110.781 17.1801 110.718 16.8848 110.718H16.1782V109.734H16.7161C17.0008 109.734 17.2118 109.671 17.37 109.556C17.5282 109.43 17.602 109.273 17.602 109.063C17.602 108.854 17.5387 108.686 17.4016 108.571C17.2645 108.445 17.0641 108.393 16.8004 108.393C16.3153 108.393 15.9778 108.634 15.7774 109.105L14.8282 108.56C15.2079 107.764 15.8723 107.366 16.8004 107.366C17.3594 107.366 17.8235 107.513 18.182 107.817C18.5406 108.12 18.7199 108.519 18.7199 109.011C18.7199 109.503 18.5195 109.912 18.1082 110.205L18.1188 110.163Z" fill="white"/>
<path d="M25.0166 112.332C24.4471 112.897 23.751 113.18 22.9283 113.18C22.1057 113.18 21.4096 112.897 20.8401 112.332C20.2706 111.766 19.9858 111.075 19.9858 110.257C19.9858 109.44 20.2706 108.749 20.8401 108.173C21.4096 107.597 22.1057 107.324 22.9283 107.324C23.751 107.324 24.4471 107.607 25.0166 108.173C25.5861 108.739 25.8708 109.43 25.8708 110.257C25.8708 111.085 25.5861 111.766 25.0166 112.332ZM21.6206 111.577C21.9686 111.923 22.401 112.101 22.9283 112.101C23.4557 112.101 23.8775 111.923 24.2361 111.577C24.5842 111.232 24.7635 110.792 24.7635 110.257C24.7635 109.723 24.5842 109.283 24.2361 108.927C23.8881 108.581 23.4557 108.403 22.9283 108.403C22.401 108.403 21.9791 108.581 21.6206 108.927C21.2725 109.273 21.0932 109.723 21.0932 110.257C21.0932 110.792 21.2725 111.232 21.6206 111.577Z" fill="white"/>
<path d="M32.0092 112.332C31.4397 112.897 30.7437 113.18 29.921 113.18C29.0984 113.18 28.4023 112.897 27.8328 112.332C27.2633 111.766 26.9785 111.075 26.9785 110.257C26.9785 109.44 27.2633 108.749 27.8328 108.173C28.4023 107.597 29.0984 107.324 29.921 107.324C30.7437 107.324 31.4397 107.607 32.0092 108.173C32.5788 108.739 32.8635 109.43 32.8635 110.257C32.8635 111.085 32.5788 111.766 32.0092 112.332ZM28.6132 111.577C28.9613 111.923 29.3937 112.101 29.921 112.101C30.4484 112.101 30.8702 111.923 31.2288 111.577C31.5768 111.232 31.7561 110.792 31.7561 110.257C31.7561 109.723 31.5768 109.283 31.2288 108.927C30.8808 108.581 30.4484 108.403 29.921 108.403C29.4042 108.403 28.9718 108.581 28.6132 108.927C28.2652 109.273 28.0859 109.723 28.0859 110.257C28.0859 110.792 28.2652 111.232 28.6132 111.577Z" fill="white"/>
<path d="M38.4736 107.44V113.076H37.3557V108.508H35.3518V113.076H34.2339V107.44H38.4736Z" fill="white"/>
<path d="M42.2285 107.44C42.7769 107.44 43.2304 107.618 43.6101 107.984C43.9792 108.351 44.169 108.801 44.169 109.325C44.169 109.849 43.9792 110.299 43.6101 110.666C43.2409 111.033 42.7769 111.211 42.2285 111.211H41.2371V113.065H40.1191V107.429H42.2285V107.44ZM42.2285 110.184C42.471 110.184 42.6609 110.1 42.8191 109.943C42.9773 109.776 43.0511 109.577 43.0511 109.336C43.0511 109.095 42.9773 108.885 42.8191 108.728C42.6609 108.571 42.4605 108.487 42.2285 108.487H41.2371V110.195H42.2285V110.184Z" fill="white"/>
<path d="M50.2016 112.332C49.6321 112.897 48.936 113.18 48.1134 113.18C47.2908 113.18 46.5947 112.897 46.0252 112.332C45.4557 111.766 45.1709 111.075 45.1709 110.257C45.1709 109.44 45.4557 108.749 46.0252 108.173C46.5947 107.597 47.2908 107.324 48.1134 107.324C48.936 107.324 49.6321 107.607 50.2016 108.173C50.7711 108.739 51.0559 109.43 51.0559 110.257C51.0559 111.085 50.7711 111.766 50.2016 112.332ZM46.8056 111.577C47.1537 111.923 47.5861 112.101 48.1134 112.101C48.6407 112.101 49.0626 111.923 49.4212 111.577C49.7692 111.232 49.9485 110.792 49.9485 110.257C49.9485 109.723 49.7692 109.283 49.4212 108.927C49.0731 108.581 48.6407 108.403 48.1134 108.403C47.5861 108.403 47.1642 108.581 46.8056 108.927C46.4576 109.273 46.2783 109.723 46.2783 110.257C46.2783 110.792 46.4576 111.232 46.8056 111.577Z" fill="white"/>
<path d="M55.1168 113.18C54.2625 113.18 53.5559 112.897 53.0075 112.332C52.4485 111.766 52.1743 111.075 52.1743 110.247C52.1743 109.419 52.4485 108.718 53.0075 108.162C53.5665 107.607 54.2731 107.324 55.1168 107.324C55.6336 107.324 56.1082 107.44 56.5406 107.68C56.973 107.921 57.3105 108.246 57.5531 108.655L56.5933 109.21C56.4562 108.959 56.2559 108.759 55.9922 108.623C55.7285 108.477 55.4438 108.414 55.1168 108.414C54.5684 108.414 54.1254 108.581 53.7879 108.927C53.4505 109.273 53.2817 109.713 53.2817 110.257C53.2817 110.802 53.4505 111.242 53.7879 111.588C54.1254 111.934 54.5684 112.101 55.1168 112.101C55.4438 112.101 55.7285 112.028 55.9922 111.892C56.2559 111.745 56.4562 111.556 56.5828 111.305L57.5425 111.86C57.3 112.269 56.9625 112.594 56.5301 112.835C56.0977 113.075 55.6231 113.191 55.1063 113.191L55.1168 113.18Z" fill="white"/>
<path d="M62.5517 107.44V108.498H61.0224V113.065H59.9045V108.498H58.3857V107.44H62.5517Z" fill="white"/>
<path d="M65.8745 107.44C66.4229 107.44 66.8764 107.618 67.2561 107.984C67.6252 108.351 67.815 108.801 67.815 109.325C67.815 109.849 67.6252 110.299 67.2561 110.666C66.8869 111.033 66.4229 111.211 65.8745 111.211H64.8831V113.065H63.7651V107.429H65.8745V107.44ZM65.8745 110.184C66.117 110.184 66.3069 110.1 66.4651 109.943C66.6233 109.776 66.6971 109.577 66.6971 109.336C66.6971 109.095 66.6233 108.885 66.4651 108.728C66.3069 108.571 66.1065 108.487 65.8745 108.487H64.8831V110.195H65.8745V110.184Z" fill="white"/>
<path d="M72.1909 113.076L71.8534 112.059H69.5964L69.259 113.076H68.0566L70.0394 107.44H71.421L73.4143 113.076H72.2015H72.1909ZM69.9445 111.022H71.4948L70.7144 108.718L69.9339 111.022H69.9445Z" fill="white"/>
<path d="M77.7605 107.44H78.8679V113.076H77.7605V110.739H75.6511V113.076H74.5332V107.44H75.6511V109.671H77.7605V107.44Z" fill="white"/>
<path d="M83.1915 113.18C82.3373 113.18 81.6306 112.897 81.0822 112.332C80.5232 111.766 80.249 111.075 80.249 110.247C80.249 109.419 80.5232 108.718 81.0822 108.162C81.6412 107.607 82.3478 107.324 83.1915 107.324C83.7083 107.324 84.1829 107.44 84.6153 107.68C85.0477 107.921 85.3852 108.246 85.6278 108.655L84.6681 109.21C84.5309 108.959 84.3306 108.759 84.0669 108.623C83.8032 108.477 83.5185 108.414 83.1915 108.414C82.6431 108.414 82.2002 108.581 81.8627 108.927C81.5252 109.273 81.3564 109.713 81.3564 110.257C81.3564 110.802 81.5252 111.242 81.8627 111.588C82.2002 111.934 82.6431 112.101 83.1915 112.101C83.5185 112.101 83.8032 112.028 84.0669 111.892C84.3306 111.745 84.5309 111.556 84.6575 111.305L85.6172 111.86C85.3747 112.269 85.0372 112.594 84.6048 112.835C84.1724 113.075 83.6978 113.191 83.181 113.191L83.1915 113.18Z" fill="white"/>
<path d="M90.6273 107.44V108.498H89.0981V113.065H87.9801V108.498H86.4614V107.44H90.6273Z" fill="white"/>
<path d="M95.2677 110.153C95.7634 110.436 96.0165 110.865 96.0165 111.441C96.0165 111.923 95.8478 112.311 95.5103 112.615C95.1728 112.918 94.7509 113.076 94.2552 113.076H91.8506V107.44H94.0865C94.5716 107.44 94.9829 107.586 95.3099 107.89C95.6368 108.194 95.8056 108.571 95.8056 109.032C95.8056 109.493 95.6263 109.87 95.2677 110.163V110.153ZM94.0759 108.477H92.958V109.713H94.0759C94.2447 109.713 94.3923 109.65 94.5083 109.535C94.6243 109.419 94.6876 109.273 94.6876 109.095C94.6876 108.917 94.6349 108.77 94.5189 108.655C94.4029 108.54 94.2552 108.477 94.0865 108.477H94.0759ZM94.2447 112.028C94.4345 112.028 94.5927 111.965 94.7193 111.839C94.8458 111.714 94.9091 111.557 94.9091 111.358C94.9091 111.158 94.8458 111.012 94.7193 110.886C94.5927 110.76 94.4345 110.698 94.2447 110.698H92.958V112.028H94.2447Z" fill="white"/>
<path d="M102.091 112.332C101.522 112.897 100.826 113.18 100.003 113.18C99.1804 113.18 98.4843 112.897 97.9148 112.332C97.3453 111.766 97.0605 111.075 97.0605 110.257C97.0605 109.44 97.3453 108.749 97.9148 108.173C98.4843 107.597 99.1804 107.324 100.003 107.324C100.826 107.324 101.522 107.607 102.091 108.173C102.661 108.739 102.946 109.43 102.946 110.257C102.946 111.075 102.661 111.766 102.091 112.332ZM98.6953 111.577C99.0433 111.923 99.4757 112.101 100.003 112.101C100.53 112.101 100.952 111.923 101.311 111.577C101.659 111.232 101.838 110.792 101.838 110.257C101.838 109.723 101.659 109.283 101.311 108.927C100.963 108.581 100.53 108.403 100.003 108.403C99.4757 108.403 99.0539 108.581 98.6953 108.927C98.3472 109.273 98.1679 109.723 98.1679 110.257C98.1679 110.792 98.3472 111.232 98.6953 111.577Z" fill="white"/>
<path d="M38.8853 48.7333C38.2736 49.2257 37.3772 49.4771 36.2276 49.4771C34.055 49.4771 32.6839 48.5028 32.1461 46.5753C32.1461 46.5543 32.125 46.5439 32.1039 46.5334C32.0828 46.5334 32.0617 46.5334 32.0511 46.5334L29.4039 48.0524C29.4039 48.0524 29.3618 48.1048 29.3723 48.1362C30.4797 51.017 32.7894 52.4836 36.2276 52.4836C38.2314 52.4836 39.8767 51.9598 41.1212 50.9437C42.3657 49.9171 43.0091 48.5657 43.0091 46.921C43.0091 44.8468 42.0704 43.3383 40.2142 42.4269C41.6064 41.5155 42.313 40.1746 42.313 38.4461C42.313 36.8538 41.7329 35.5443 40.5833 34.5596C39.4338 33.5749 37.915 33.072 36.0694 33.072C33.0214 33.072 30.8594 34.392 29.6465 36.99C29.636 37.0214 29.6465 37.0528 29.6676 37.0738L32.2937 38.5928C32.2937 38.5928 32.3253 38.6032 32.3464 38.5928C32.3675 38.5928 32.3781 38.5718 32.3886 38.5509C33.0214 36.9062 34.2554 36.0681 36.0694 36.0681C37.0502 36.0681 37.8096 36.2986 38.3264 36.7595C38.8432 37.21 39.1068 37.8385 39.1068 38.6137C39.1068 39.3889 38.8221 40.0175 38.2525 40.4784C37.683 40.9498 36.8604 41.1803 35.8374 41.1803H34.1816C34.1816 41.1803 34.1183 41.2117 34.1183 41.2431V44.0087C34.1183 44.0087 34.1499 44.0716 34.1816 44.0716H36.4596C37.5248 44.0716 38.358 44.323 38.9486 44.8154C39.5287 45.3077 39.824 45.9677 39.824 46.7743C39.824 47.581 39.5181 48.2724 38.9064 48.7543L38.8853 48.7333Z" fill="white"/>
<path d="M58.4072 40.4051C57.0362 39.0538 55.3276 38.3624 53.3448 38.3624C51.3621 38.3624 49.6746 39.0433 48.293 40.4051C46.9114 41.7565 46.2153 43.4431 46.2153 45.423C46.2153 47.403 46.9114 49.0896 48.293 50.4409C49.6746 51.7923 51.3726 52.4837 53.3448 52.4837C55.3171 52.4837 57.0362 51.8028 58.4072 50.4409C59.7783 49.0896 60.4743 47.403 60.4743 45.423C60.4743 43.4431 59.7783 41.7565 58.4072 40.4051ZM56.2662 48.3772C55.4753 49.1629 54.4944 49.5505 53.3448 49.5505C52.1953 49.5505 51.2039 49.1524 50.4234 48.3772C49.6324 47.5915 49.2422 46.5963 49.2422 45.423C49.2422 44.2498 49.643 43.2441 50.4234 42.4689C51.2144 41.6832 52.1953 41.2956 53.3448 41.2956C54.4944 41.2956 55.4858 41.6937 56.2662 42.4689C57.0572 43.2546 57.4475 44.2498 57.4475 45.423C57.4475 46.5963 57.0467 47.602 56.2662 48.3772Z" fill="white"/>
<path d="M78.0764 45.423C78.0764 43.4431 77.3803 41.7565 76.0093 40.4051C74.6382 39.0538 72.9296 38.3624 70.9469 38.3624C68.9641 38.3624 67.2767 39.0433 65.8951 40.4051C64.5135 41.7565 63.8174 43.4431 63.8174 45.423C63.8174 47.403 64.5135 49.0896 65.8951 50.4409C67.2767 51.7923 68.9747 52.4837 70.9469 52.4837C72.9191 52.4837 74.6382 51.8028 76.0093 50.4409C77.3803 49.0896 78.0764 47.403 78.0764 45.423ZM73.8683 48.3772C73.0773 49.1629 72.0965 49.5505 70.9469 49.5505C69.7973 49.5505 68.8059 49.1524 68.0255 48.3772C67.2345 47.5915 66.8443 46.5963 66.8443 45.423C66.8443 44.2498 67.245 43.2441 68.0255 42.4689C68.8165 41.6832 69.7973 41.2956 70.9469 41.2956C72.0965 41.2956 73.0879 41.6937 73.8683 42.4689C74.6593 43.2546 75.0495 44.2498 75.0495 45.423C75.0495 46.5963 74.6488 47.602 73.8683 48.3772Z" fill="white"/>
<path d="M48.0504 59.45C48.5039 59.45 48.9257 59.5548 49.2949 59.7538C49.664 59.9528 49.9488 60.2357 50.1386 60.5919C50.1386 60.6023 50.1597 60.6233 50.1808 60.6233C50.2019 60.6233 50.2124 60.6233 50.2335 60.6233L51.6362 59.8167C51.6362 59.8167 51.6573 59.7957 51.6679 59.7748C51.6679 59.7538 51.6679 59.7433 51.6679 59.7224C51.3093 59.1253 50.803 58.6329 50.1597 58.2872C49.5164 57.931 48.8097 57.7529 48.0504 57.7529C46.7953 57.7529 45.7407 58.172 44.918 58.9995C44.0954 59.8271 43.6841 60.8642 43.6841 62.0899C43.6841 63.3156 44.0954 64.3422 44.918 65.1698C45.7407 65.9974 46.7953 66.4164 48.0504 66.4164C48.8097 66.4164 49.5269 66.2383 50.1597 65.8821C50.7925 65.526 51.2987 65.0441 51.6573 64.4469C51.6573 64.4365 51.6679 64.4155 51.6573 64.3946C51.6573 64.3736 51.6468 64.3631 51.6257 64.3527L50.223 63.546C50.223 63.546 50.1913 63.5356 50.1702 63.546C50.1492 63.546 50.1386 63.567 50.1281 63.5775C49.9382 63.9232 49.6535 64.206 49.2843 64.405C48.9152 64.6041 48.4933 64.7088 48.0293 64.7088C47.2488 64.7088 46.6055 64.4679 46.1309 63.9755C45.6563 63.4937 45.4137 62.8546 45.4137 62.0899C45.4137 61.3252 45.6563 60.6757 46.1309 60.1833C46.6055 59.7014 47.2488 59.45 48.0293 59.45H48.0504Z" fill="white"/>
<path d="M54.8946 66.2593H56.5293C56.5293 66.2593 56.5926 66.2279 56.5926 66.1965V59.5967H58.7546C58.7546 59.5967 58.8179 59.5653 58.8179 59.5339V57.9834C58.8179 57.9834 58.7863 57.9206 58.7546 57.9206H52.6692C52.6692 57.9206 52.606 57.952 52.606 57.9834V59.5339C52.606 59.5339 52.6376 59.5967 52.6692 59.5967H54.8207V66.1965C54.8207 66.1965 54.8524 66.2593 54.884 66.2593H54.8946Z" fill="white"/>
<path d="M61.8663 64.4365C61.6026 64.5937 61.2651 64.6461 60.8327 64.6146C60.8116 64.6146 60.8011 64.6146 60.78 64.6356C60.7694 64.6461 60.7589 64.667 60.7589 64.688V66.1965C60.7589 66.1965 60.7905 66.2593 60.8221 66.2593C60.896 66.2593 60.9803 66.2593 61.0542 66.2593C62.4674 66.2593 63.5115 65.4841 64.1443 63.9442L66.6228 57.9939C66.6228 57.9939 66.6228 57.952 66.6228 57.9311C66.6228 57.9101 66.5911 57.8997 66.57 57.8997H64.9353C64.9353 57.8997 64.8826 57.9206 64.872 57.9416L63.3006 61.7652L61.5604 57.9416C61.5604 57.9416 61.5288 57.8997 61.4971 57.8997H59.8624C59.8624 57.8997 59.8202 57.9101 59.8097 57.9311C59.7991 57.952 59.7991 57.973 59.8097 57.9939L62.4991 63.7032C62.3303 64.0385 62.1088 64.2794 61.8557 64.4261L61.8663 64.4365Z" fill="white"/>
<path d="M72.9929 67.8307H74.6276C74.6276 67.8307 74.6909 67.7993 74.6909 67.7678V64.646C74.6909 64.646 74.6593 64.5832 74.6276 64.5832H73.805V57.9834C73.805 57.9834 73.7734 57.9206 73.7417 57.9206H68.2891C68.2891 57.9206 68.2258 57.952 68.2258 57.9834V61.87C68.2258 63.0537 68.0044 63.9651 67.572 64.5832H66.8021C66.8021 64.5832 66.7388 64.6146 66.7388 64.646V67.7678C66.7388 67.7678 66.7704 67.8307 66.8021 67.8307H68.4368C68.4368 67.8307 68.5001 67.7993 68.5001 67.7678V66.2593H72.9402V67.7678C72.9402 67.7678 72.9718 67.8307 73.0035 67.8307H72.9929ZM72.0437 59.5548V64.5727H69.4598C69.8078 63.9232 69.9766 63.0223 69.9766 61.8804V59.5548H72.0437Z" fill="white"/>
<path d="M82.8333 57.9101H81.5888C81.5888 57.9101 81.5466 57.9101 81.5361 57.9415L78.1084 62.7918V57.973C78.1084 57.973 78.0768 57.9101 78.0452 57.9101H76.4104C76.4104 57.9101 76.3472 57.9415 76.3472 57.973V66.186C76.3472 66.186 76.3788 66.2488 76.4104 66.2488H77.6549C77.6549 66.2488 77.6971 66.2488 77.7077 66.2174L81.1353 61.3776V66.186C81.1353 66.186 81.167 66.2488 81.1986 66.2488H82.8333C82.8333 66.2488 82.8966 66.2174 82.8966 66.186V57.973C82.8966 57.973 82.865 57.9101 82.8333 57.9101Z" fill="white"/>
<path d="M90.9114 57.9101H87.5997C86.8193 57.9101 86.1548 58.1825 85.6064 58.7272C85.058 59.272 84.7838 59.932 84.7838 60.6967C84.7838 61.2519 84.9525 61.7757 85.29 62.2366C85.6064 62.6766 86.0283 63.0014 86.5345 63.1899L84.5623 66.1441C84.5623 66.1441 84.5518 66.186 84.5623 66.2069C84.5729 66.2279 84.5939 66.2384 84.615 66.2384H86.4501C86.4501 66.2384 86.4923 66.2279 86.5029 66.2069L88.3802 63.389H89.2134V66.1755C89.2134 66.1755 89.245 66.2384 89.2766 66.2384H90.9114C90.9114 66.2384 90.9746 66.2069 90.9746 66.1755V57.9625C90.9746 57.9625 90.943 57.8997 90.9114 57.8997V57.9101ZM86.8615 59.8796C87.0724 59.6596 87.315 59.5444 87.6103 59.5444H89.2239V61.8385H87.6103C87.315 61.8385 87.0724 61.7233 86.872 61.5033C86.6611 61.2833 86.5556 61.0005 86.5556 60.6862C86.5556 60.3719 86.6611 60.0996 86.872 59.8691L86.8615 59.8796Z" fill="white"/>
<path d="M96.2694 42.6574C94.2234 37.849 91.2914 33.5225 87.5474 29.8141C83.8139 26.1056 79.4581 23.1934 74.6172 21.1506C69.597 19.045 64.271 17.9764 58.7762 17.9764C53.2814 17.9764 47.9554 19.045 42.9352 21.1506C38.0943 23.1829 33.7386 26.0952 30.0051 29.8141C26.2716 33.5225 23.3396 37.849 21.283 42.6574C19.1632 47.6438 18.0874 52.9341 18.0874 58.392C18.0874 65.9974 20.2284 73.4142 24.2783 79.8254C28.1911 86.0271 33.728 91.0659 40.2775 94.3972C40.3935 94.5334 40.5622 94.6172 40.7521 94.6172C41.0896 94.6172 41.3638 94.3448 41.3638 94.0096V85.9537L43.2832 85.5138C43.6418 85.43 43.8633 85.0738 43.7895 84.7176C43.7051 84.3614 43.3465 84.1414 42.9879 84.2148L41.3638 84.5919V83.031L42.9774 83.1567C43.3465 83.1881 43.6629 82.9053 43.6946 82.5386C43.7262 82.172 43.4414 81.8577 43.0723 81.8263L41.3532 81.7006C41.3532 79.6473 41.4587 76.9865 42.0177 75.1846C42.6821 75.7294 43.7578 76.6617 44.6859 77.6674C44.8652 77.8664 45.15 77.9188 45.3926 77.8036C45.4348 77.7826 49.1999 76.0437 52.5748 77.856C52.8385 77.9922 53.1654 77.9293 53.3447 77.6884C53.3658 77.6674 54.874 75.7294 56.572 74.5247C56.8356 74.6818 57.2364 74.9332 57.7216 75.2894C56.4032 77.2169 55.5068 79.5007 55.1693 81.9101C54.7474 84.8747 55.2536 87.5042 56.5509 89.1384C57.827 90.7516 59.8625 91.1497 61.7187 90.1545C62.921 89.505 63.8491 88.3736 64.3343 86.9699C64.8827 85.3881 64.83 83.5653 64.1866 81.6796C63.2058 78.7988 61.2547 76.6722 59.7992 75.3942C59.6621 75.2789 59.5356 75.1637 59.409 75.0589C60.084 74.2418 60.8433 73.519 61.666 72.9219C63.8386 71.361 65.9585 70.7429 67.9518 71.0886C70.5357 71.5391 72.0017 73.4247 72.3919 74.0009C72.7926 74.5875 73.0985 75.1951 73.4044 75.7922C74.1321 77.2379 74.8809 78.7255 76.7476 78.7883C76.8109 79.0607 76.9375 79.3959 77.1379 79.7416C77.4964 80.3387 78.1925 81.0406 79.4897 81.2606C79.0362 82.4444 78.1292 83.9633 76.5789 84.7595C76.1676 84.969 75.7246 85.1366 75.2606 85.2519C75.2395 85.2519 75.2184 85.2519 75.1973 85.2623C73.8895 85.5871 72.4446 85.5242 71.2845 85.0738C70.0822 84.6024 69.2595 83.7538 68.8482 82.5596C68.7428 82.2453 68.3947 82.0777 68.0783 82.1825C67.7619 82.2872 67.5932 82.6329 67.6986 82.9472C68.226 84.4662 69.3123 85.5871 70.831 86.1842C72.1282 86.6975 73.6786 86.8023 75.134 86.509C75.5875 87.0432 76.5578 88.0175 77.6757 88.0175C77.7074 88.0175 77.739 88.0175 77.7812 88.0175C78.4878 87.9756 79.0362 87.6089 79.2472 87.0223C79.4897 86.3414 79.2683 85.5242 78.6355 84.7595C79.3632 84.0681 79.8694 83.2929 80.1964 82.6539C80.7659 81.5539 81.0506 80.433 81.0717 79.8254C81.0928 79.2702 81.1245 78.4217 80.4495 77.856C79.8589 77.3531 78.9097 77.2379 77.4859 77.4998C77.391 77.5207 77.296 77.5312 77.2011 77.5417H77.18C75.7984 77.6988 75.3344 76.9027 74.4907 75.2265C74.1848 74.6294 73.8473 73.9485 73.4044 73.299C72.9508 72.6286 71.2212 70.4077 68.1732 69.8839C65.8424 69.4753 63.4167 70.1668 60.9699 71.9267C60.0418 72.5867 59.2086 73.3933 58.4598 74.3047C57.5317 73.6342 56.8778 73.2885 56.8356 73.2676C56.6352 73.1628 56.4032 73.1733 56.2239 73.299C54.7052 74.2942 53.3131 75.8341 52.7119 76.557C49.5901 75.1323 46.4156 76.096 45.2976 76.5256C43.8211 74.9961 42.2075 73.7599 42.1337 73.7076C41.986 73.5923 41.7962 73.5609 41.6169 73.6028C41.4376 73.6447 41.2899 73.7704 41.2056 73.938C40.3091 75.8446 40.1615 78.9769 40.1404 81.6063L37.0607 81.3758C36.6916 81.3444 36.3752 81.6272 36.3436 81.9939C36.3119 82.3605 36.5967 82.6748 36.9658 82.7063L40.1404 82.9472V84.8852L37.1135 85.5871C36.7549 85.6709 36.5334 86.0271 36.6072 86.3833C36.6916 86.7394 37.0502 86.9594 37.4088 86.8861L40.1404 86.2575V93.0982C27.2102 86.2366 19.2053 73.0266 19.2053 58.4234C19.2053 36.749 36.9553 19.1183 58.7762 19.1183C80.5971 19.1183 98.0412 36.4557 98.3471 57.8682H94.4237C94.1179 57.8682 93.8648 58.1196 93.8648 58.4234C93.8648 58.7272 94.1179 58.9786 94.4237 58.9786H98.9166C99.0642 58.9786 99.2014 58.9158 99.3068 58.8215C99.4123 58.7272 99.465 58.5805 99.465 58.4339C99.465 52.976 98.3893 47.6857 96.2694 42.6993V42.6574ZM78.1081 86.5928C78.066 86.7185 77.9394 86.7813 77.7285 86.7918H77.6863C77.275 86.7918 76.8215 86.4566 76.4523 86.1109C76.6843 86.0166 76.9164 85.9118 77.1379 85.8071C77.3277 85.7128 77.507 85.608 77.6757 85.4928C78.066 85.9642 78.182 86.3728 78.0976 86.5928H78.1081ZM79.6585 78.7569C79.8694 78.935 79.8694 79.3016 79.8483 79.773C79.8483 79.8568 79.8378 79.9511 79.8167 80.0559C78.5933 79.8778 78.1398 79.1445 77.971 78.6312C79.089 78.4531 79.5108 78.6312 79.6585 78.7569ZM58.6813 76.0122C60.2316 77.3112 62.1195 79.3331 63.037 82.0358C63.5855 83.6595 63.6382 85.2204 63.1847 86.5509C62.7945 87.6718 62.0773 88.5622 61.1387 89.065C60.0945 89.6307 58.5864 89.7355 57.5001 88.3632C56.4243 87.0118 56.0025 84.6443 56.3716 82.0463C56.6774 79.8464 57.4895 77.7617 58.6813 76.0018V76.0122Z" fill="white"/>
<path d="M51.7515 80.0977H51.5723C51.2519 80.0977 50.9922 80.3557 50.9922 80.6739V82.0357C50.9922 82.3539 51.2519 82.6119 51.5723 82.6119H51.7515C52.0719 82.6119 52.3316 82.3539 52.3316 82.0357V80.6739C52.3316 80.3557 52.0719 80.0977 51.7515 80.0977Z" fill="white"/>
<path d="M46.3741 80.0977H46.1948C45.8744 80.0977 45.6147 80.3557 45.6147 80.6739V82.0357C45.6147 82.3539 45.8744 82.6119 46.1948 82.6119H46.3741C46.6945 82.6119 46.9542 82.3539 46.9542 82.0357V80.6739C46.9542 80.3557 46.6945 80.0977 46.3741 80.0977Z" fill="white"/>
<path d="M69.1328 77.3112C69.1328 77.3112 70.0715 76.8398 70.9363 77.4474C71.0418 77.5207 71.1683 77.5521 71.2843 77.5521C71.4742 77.5521 71.664 77.4579 71.78 77.2903C71.9699 77.0179 71.9066 76.6408 71.6324 76.4522C70.1453 75.4151 68.6266 76.2008 68.5633 76.2322C68.268 76.3893 68.152 76.756 68.3102 77.0493C68.4684 77.3426 68.8375 77.4579 69.1328 77.2903V77.3112Z" fill="white"/>
<g opacity="0.1">
<path d="M9.05954 89.4212C9.05954 89.4212 8.97516 89.4003 8.94352 89.3584C3.09016 80.0873 0 69.3706 0 58.392C0 57.0092 0.052733 55.6159 0.147652 54.254C0.147652 54.1807 0.221479 54.1388 0.284758 54.1283C0.358585 54.1283 0.411318 54.1912 0.411318 54.2645C0.316398 55.6264 0.263665 57.0092 0.263665 58.3815C0.263665 69.3182 3.34327 79.9825 9.17555 89.2222C9.21773 89.285 9.19664 89.3688 9.13336 89.4003C9.11227 89.4107 9.09118 89.4212 9.05954 89.4212ZM117.226 53.7407C117.162 53.7407 117.099 53.6883 117.099 53.615C116.677 48.3876 115.538 43.244 113.714 38.3309C113.692 38.268 113.714 38.1842 113.787 38.1632C113.861 38.1318 113.935 38.1632 113.956 38.2366C115.781 43.1707 116.93 48.3352 117.363 53.5941C117.363 53.6674 117.31 53.7302 117.247 53.7302H117.236L117.226 53.7407ZM1.95112 44.0506C1.95112 44.0506 1.93003 44.0506 1.91948 44.0506C1.84566 44.0297 1.80347 43.9668 1.82456 43.8935C2.00386 43.2126 2.19369 42.5316 2.38353 41.8717C2.40463 41.7983 2.47845 41.7669 2.55228 41.7879C2.62611 41.8088 2.65774 41.8821 2.63665 41.9555C2.43627 42.6154 2.24643 43.2964 2.07768 43.9773C2.06713 44.0402 2.00386 44.0716 1.95112 44.0716V44.0506ZM4.23974 37.0738C4.23974 37.0738 4.2081 37.0738 4.187 37.0738C4.12372 37.0423 4.08154 36.969 4.11318 36.9062C4.28192 36.4976 4.45067 36.0786 4.61941 35.67C6.5178 31.2178 8.95407 27.0275 11.8649 23.2038C11.9071 23.141 11.9915 23.1305 12.0548 23.1829C12.1181 23.2248 12.1286 23.3086 12.0759 23.361C9.17555 27.1637 6.74983 31.3435 4.86199 35.7748C4.69324 36.1833 4.52449 36.5919 4.35575 37.0004C4.33466 37.0528 4.28192 37.0842 4.22919 37.0842L4.23974 37.0738ZM111.794 33.5853C111.794 33.5853 111.699 33.5539 111.678 33.512C111.383 32.8835 111.066 32.2549 110.739 31.6368C110.708 31.574 110.739 31.4902 110.792 31.4587C110.855 31.4273 110.94 31.4587 110.971 31.5111C111.298 32.1292 111.615 32.7682 111.91 33.3968C111.942 33.4596 111.91 33.5434 111.847 33.5749C111.826 33.5749 111.805 33.5853 111.794 33.5853ZM105.181 22.8791C105.181 22.8791 105.107 22.8581 105.076 22.8267C103.568 20.8992 101.912 19.0345 100.161 17.285C94.7929 11.9529 88.5388 7.76255 81.5675 4.83981C79.4581 3.94937 77.275 3.18464 75.0918 2.55609C75.018 2.53514 74.9864 2.46181 75.0075 2.38848C75.0286 2.31515 75.1024 2.27324 75.1762 2.30467C77.3699 2.93322 79.5531 3.70842 81.6729 4.59886C88.6759 7.54256 94.9511 11.7433 100.351 17.0965C102.123 18.8564 103.779 20.7211 105.297 22.6696C105.34 22.722 105.329 22.8058 105.276 22.8477C105.255 22.8686 105.223 22.8791 105.192 22.8791H105.181ZM41.7962 2.74465C41.7435 2.74465 41.6907 2.71323 41.6696 2.65037C41.6485 2.57704 41.6907 2.50371 41.754 2.48276C45.1184 1.46661 48.6093 0.754256 52.1002 0.366652C52.1741 0.345701 52.2373 0.408555 52.2479 0.481886C52.2479 0.555216 52.2057 0.618071 52.1319 0.628546C48.6515 1.01615 45.1817 1.7285 41.8278 2.73418C41.8173 2.73418 41.8067 2.73418 41.7857 2.73418L41.7962 2.74465ZM54.2307 0.439982C54.1674 0.439982 54.1041 0.387604 54.1041 0.314273C54.1041 0.240943 54.1568 0.178088 54.2307 0.178088C55.7177 0.0628546 57.2364 0 58.7341 0C58.9872 0 59.2508 0 59.504 0C59.5778 0 59.6305 0.0628546 59.6305 0.136185C59.6305 0.209515 59.5672 0.261894 59.504 0.261894C59.2508 0.261894 58.9977 0.261894 58.7341 0.261894C57.2364 0.261894 55.7283 0.314273 54.2307 0.429507V0.439982Z" fill="white"/>
</g>
<g opacity="0.3">
<path d="M33.9185 104.768C33.9185 104.768 33.8342 104.768 33.792 104.737C25.6711 100.41 18.7947 94.0306 13.9011 86.2785C12.2031 83.5862 10.7371 80.7263 9.56641 77.7722C9.51368 77.636 9.57696 77.4893 9.71406 77.4369C9.85117 77.3846 9.99882 77.4474 10.0621 77.5836C11.2328 80.5063 12.6777 83.3453 14.3546 86.0061C19.1955 93.6849 26.0086 100.002 34.0451 104.286C34.1716 104.36 34.2244 104.517 34.1505 104.643C34.0978 104.726 34.0134 104.779 33.9185 104.779V104.768ZM6.9403 67.8621C6.81374 67.8621 6.70828 67.7783 6.67664 67.6421C6.12822 64.5936 5.854 61.4823 5.854 58.392C5.854 56.213 5.99111 54.034 6.25477 51.897C6.27587 51.7503 6.40243 51.6456 6.55008 51.6665C6.69773 51.6875 6.79265 51.8132 6.7821 51.9598C6.51844 54.0759 6.39188 56.234 6.39188 58.392C6.39188 61.4614 6.66609 64.5412 7.20397 67.5583C7.22506 67.7049 7.13014 67.8411 6.99304 67.8621C6.98249 67.8621 6.9614 67.8621 6.95085 67.8621H6.9403ZM111.436 58.6539C111.288 58.6539 111.172 58.5386 111.172 58.392C111.172 56.4749 111.067 54.5369 110.856 52.6512C110.845 52.5046 110.94 52.3789 111.088 52.3579C111.225 52.3579 111.362 52.4417 111.383 52.5884C111.594 54.495 111.7 56.454 111.7 58.392C111.7 58.5386 111.584 58.6539 111.436 58.6539ZM7.42545 47.0258C7.42545 47.0258 7.38326 47.0258 7.36217 47.0258C7.22506 46.9943 7.13014 46.8477 7.16178 46.7115C7.84731 43.7259 8.80705 40.7717 10.0199 37.9328C10.8847 35.911 11.8761 33.931 12.973 32.0559C13.0468 31.9302 13.205 31.8883 13.3315 31.9616C13.4581 32.0349 13.5003 32.1921 13.4265 32.3178C12.3402 34.1825 11.3593 36.1414 10.5051 38.1318C9.30274 40.9498 8.35355 43.8725 7.67857 46.8267C7.64693 46.9524 7.54146 47.0258 7.42545 47.0258ZM108.926 42.6364C108.81 42.6364 108.715 42.5631 108.673 42.4583C108.198 41.0022 107.66 39.5461 107.049 38.1318C104.412 31.9302 100.636 26.3675 95.8271 21.5906C93.0006 18.7831 89.8683 16.3108 86.525 14.2366C86.3984 14.1632 86.3668 13.9956 86.4406 13.8804C86.5144 13.7652 86.6832 13.7233 86.8097 13.7966C90.1847 15.8917 93.3486 18.3955 96.2068 21.2239C101.069 26.0533 104.876 31.6683 107.544 37.9328C108.156 39.368 108.704 40.8346 109.179 42.3012C109.221 42.4374 109.147 42.584 109.01 42.6364C108.979 42.6364 108.958 42.6469 108.926 42.6469V42.6364ZM41.0058 9.39677C40.9004 9.39677 40.7949 9.33391 40.7527 9.21868C40.7 9.0825 40.7738 8.93583 40.9109 8.88346C44.2436 7.69969 47.7029 6.84068 51.1939 6.34832C51.331 6.32737 51.4681 6.43212 51.4892 6.56831C51.5103 6.71497 51.4048 6.84068 51.2677 6.86163C47.8084 7.35399 44.3808 8.20253 41.0902 9.37582C41.0586 9.38629 41.0269 9.38629 41.0058 9.38629V9.39677ZM72.1816 8.04539C72.1816 8.04539 72.1394 8.04539 72.1183 8.04539C70.4309 7.60541 68.7118 7.24923 66.9821 6.97686C66.8345 6.95591 66.7396 6.81973 66.7607 6.67307C66.7817 6.52641 66.9188 6.43212 67.0665 6.45308C68.8067 6.72545 70.5574 7.0921 72.2554 7.53208C72.3925 7.57398 72.4769 7.71017 72.4453 7.85683C72.4136 7.97206 72.3082 8.05587 72.1922 8.05587L72.1816 8.04539Z" fill="white"/>
</g>
<g opacity="0.5">
<path d="M105.445 59.1777C105.012 59.1777 104.654 58.8215 104.654 58.392C104.654 52.2951 103.462 46.3867 101.11 40.8136C100.941 40.4155 101.131 39.9546 101.532 39.787C101.933 39.6194 102.397 39.8079 102.565 40.206C105.002 45.9782 106.225 52.096 106.225 58.392C106.225 58.8319 105.866 59.1777 105.434 59.1777H105.445Z" fill="white"/>
<path d="M99.3705 36.2671C99.0963 36.2671 98.8221 36.1204 98.685 35.869C97.3245 33.491 95.732 31.2178 93.9601 29.1122C93.6754 28.7769 93.7176 28.2846 94.0551 28.0017C94.3926 27.7189 94.8882 27.7608 95.173 28.096C97.0081 30.275 98.6534 32.6215 100.067 35.0833C100.288 35.4605 100.151 35.9424 99.7713 36.1519C99.6448 36.2252 99.5182 36.2566 99.3811 36.2566L99.3705 36.2671ZM92.684 27.3103C92.4731 27.3103 92.2621 27.2265 92.1039 27.0589C91.8086 26.7551 91.5133 26.4513 91.218 26.1475C89.5622 24.5028 87.7693 22.9733 85.9025 21.6115C85.5545 21.3496 85.4701 20.8572 85.7338 20.5115C85.9975 20.1658 86.4931 20.082 86.8412 20.3439C88.7712 21.7582 90.6274 23.3295 92.336 25.0371C92.6524 25.3409 92.9582 25.6551 93.2535 25.9799C93.5594 26.2942 93.5383 26.797 93.2219 27.0903C93.0637 27.237 92.8738 27.3103 92.6735 27.3103H92.684ZM47.6184 14.1423C47.2598 14.1423 46.9434 13.9013 46.8485 13.5452C46.743 13.1261 47.0067 12.6966 47.4285 12.5919C49.7382 12.0262 52.1218 11.6386 54.4947 11.429C54.9272 11.3976 55.3174 11.7119 55.349 12.1414C55.3807 12.5709 55.0643 12.9585 54.6318 12.9899C52.3327 13.189 50.0335 13.5766 47.7976 14.1213C47.7344 14.1318 47.6711 14.1423 47.6078 14.1423H47.6184ZM68.5534 13.828C68.5006 13.828 68.4479 13.828 68.3846 13.807C66.5917 13.4299 64.7566 13.1575 62.9215 12.9899C62.4891 12.948 62.1621 12.5709 62.2043 12.1414C62.2465 11.7119 62.6262 11.3976 63.0586 11.429C64.957 11.5967 66.8554 11.8795 68.7116 12.2776C69.144 12.3719 69.4076 12.7909 69.3233 13.2099C69.2389 13.5766 68.912 13.828 68.5534 13.828Z" fill="white"/>
<path d="M19.4367 84.1205C19.173 84.1205 18.9199 83.9948 18.7722 83.7643L18.5402 83.3977C15.0387 77.856 12.7818 71.7486 11.822 65.2746C11.7587 64.8451 12.054 64.447 12.4864 64.3841C12.9189 64.3318 13.3196 64.6146 13.3829 65.0441C14.311 71.3086 16.4942 77.2065 19.8691 82.5701L20.0905 82.9158C20.3226 83.2824 20.2171 83.7643 19.848 84.0053C19.7109 84.0891 19.5632 84.131 19.4156 84.131L19.4367 84.1205ZM13.8575 46.5753C13.7837 46.5753 13.7099 46.5753 13.6466 46.5439C13.2247 46.4287 12.9821 45.9887 13.0982 45.5696C13.636 43.6945 14.2899 41.8298 15.0598 40.028C15.4079 39.2108 15.777 38.4042 16.1672 37.6185C16.3571 37.2309 16.8316 37.0633 17.2219 37.2624C17.6121 37.4509 17.7808 37.9223 17.5805 38.3099C17.2113 39.0642 16.8422 39.8499 16.5153 40.6356C15.777 42.3745 15.1336 44.1764 14.6169 45.9887C14.5219 46.3344 14.2055 46.5648 13.8575 46.5648V46.5753ZM18.1816 36.2881C18.0445 36.2881 17.9179 36.2567 17.7914 36.1834C17.4117 35.9634 17.2746 35.492 17.4961 35.1148C18.8988 32.653 20.5441 30.3064 22.3897 28.1275C22.6745 27.7923 23.1702 27.7504 23.5077 28.0332C23.8451 28.316 23.8873 28.8084 23.6026 29.1436C21.8202 31.2493 20.2382 33.5225 18.8777 35.9005C18.73 36.1519 18.4664 36.2986 18.1922 36.2986L18.1816 36.2881ZM26.8509 25.3619C26.64 25.3619 26.4291 25.2781 26.2709 25.1105C25.9756 24.7962 25.9861 24.2933 26.3025 24C30.4051 20.1659 35.1195 17.1279 40.2978 14.949C41.2892 14.5299 42.3017 14.1423 43.3142 13.7966C43.7255 13.6604 44.179 13.87 44.3267 14.2785C44.4743 14.6871 44.2528 15.1375 43.8415 15.2842C42.8712 15.6194 41.8904 15.9861 40.9306 16.3946C35.921 18.5002 31.3649 21.4439 27.3993 25.1419C27.2411 25.2885 27.0513 25.3514 26.8615 25.3514L26.8509 25.3619Z" fill="white"/>
<path d="M36.9969 100.18C36.8703 100.18 36.7438 100.148 36.6278 100.086C31.0486 97.1524 26.1761 93.2135 22.1473 88.3632C21.8731 88.028 21.9153 87.5356 22.2527 87.2528C22.5902 86.9804 23.0859 87.0223 23.3707 87.3575C27.2624 92.0402 31.9662 95.8534 37.366 98.6818C37.7563 98.8809 37.9039 99.3628 37.693 99.7399C37.5559 100.002 37.2711 100.159 36.9969 100.159V100.18Z" fill="white"/>
</g>
<path d="M51.8055 83.8481C51.468 83.8481 51.1938 84.1205 51.1938 84.4557C51.1938 84.8852 50.8458 85.2414 50.4028 85.2414C49.9598 85.2414 49.6118 84.8957 49.6118 84.4557C49.6118 84.1205 49.3376 83.8481 49.0001 83.8481C48.6626 83.8481 48.3884 84.1205 48.3884 84.4557C48.3884 84.8852 48.0404 85.2414 47.5974 85.2414C47.1545 85.2414 46.8064 84.8957 46.8064 84.4557C46.8064 84.1205 46.5322 83.8481 46.1947 83.8481C45.8572 83.8481 45.583 84.1205 45.583 84.4557C45.583 85.5557 46.4795 86.4461 47.5869 86.4461C48.1247 86.4461 48.6204 86.2261 48.979 85.8804C49.3376 86.2261 49.8333 86.4461 50.3712 86.4461C51.4786 86.4461 52.375 85.5557 52.375 84.4557C52.375 84.1205 52.1008 83.8481 51.7633 83.8481H51.8055Z" fill="white"/>
<defs>
<linearGradient id="paint0_linear_1229_110" x1="58.7446" y1="6.04443" x2="58.7446" y2="119.434" gradientUnits="userSpaceOnUse">
<stop stop-color="#1DD6A4"/>
<stop offset="1" stop-color="#006B6A"/>
</linearGradient>
</defs>
</svg>
