<svg width="16" height="16" viewBox="0 0 16 16" fill="none" xmlns="http://www.w3.org/2000/svg">
<path d="M13.4169 10.5178C12.4986 9.73702 11.5667 9.26407 10.6598 10.0437L10.1182 10.5148C9.72192 10.8569 8.98518 12.455 6.13668 9.19744C3.28878 5.94401 4.98352 5.43745 5.38037 5.09837L5.92492 4.6266C6.82716 3.84524 6.48667 2.8616 5.83594 1.84907L5.44325 1.23577C4.78955 0.225599 4.07772 -0.437824 3.17311 0.342361L2.68432 0.766952C2.28451 1.0565 1.16695 1.99768 0.895858 3.78567C0.569604 5.93104 1.59879 8.38777 3.95671 11.0833C6.31168 13.7801 8.6174 15.1346 10.8015 15.111C12.6167 15.0916 13.7129 14.1233 14.0558 13.7712L14.5463 13.346C15.4486 12.5664 14.888 11.7727 13.9692 10.9902L13.4169 10.5178Z" fill="#00D3B3"/>
</svg>
