<svg width="36" height="35" viewBox="0 0 36 35" fill="none" xmlns="http://www.w3.org/2000/svg">
<path d="M17.6809 34.865C27.4458 34.865 35.3618 27.0602 35.3618 17.4325C35.3618 7.80479 27.4458 0 17.6809 0C7.91601 0 0 7.80479 0 17.4325C0 27.0602 7.91601 34.865 17.6809 34.865Z" fill="url(#paint0_linear_1464_5)"/>
<path d="M28.7337 24.2919C28.6186 24.2919 28.5199 24.3082 28.4048 24.3082C27.5988 24.3082 26.7929 24.3082 25.987 24.3082C25.5429 24.3082 25.1811 24.1784 24.8686 23.8865C24.5396 23.5784 24.2436 23.2379 23.9311 22.9136C23.2896 22.2163 22.6482 21.5352 21.8916 20.9514C21.5462 20.6919 21.2008 20.4325 20.7896 20.2703C20.5429 20.173 20.2962 20.1568 20.033 20.1892C19.8521 20.2217 19.7534 20.319 19.7041 20.4811C19.6548 20.6271 19.6383 20.7568 19.6383 20.9027C19.6054 21.6811 19.6383 22.4433 19.6383 23.2217C19.6383 23.319 19.6383 23.4325 19.6383 23.5298C19.6219 23.8055 19.4738 24.0001 19.2107 24.1136C18.9475 24.2271 18.6515 24.2595 18.3719 24.2757C16.7436 24.3892 15.2469 23.9676 13.8488 23.1892C12.4015 22.3946 11.2173 21.3082 10.2469 19.9946C9.04622 18.3892 7.99359 16.7027 7.13832 14.8865C6.71069 13.9622 6.3324 13.0379 6.06924 12.0487C6.0199 11.8541 5.97056 11.6433 5.93767 11.4487C5.83898 10.8487 6.10214 10.5243 6.72714 10.5243C7.63174 10.5243 8.53635 10.5243 9.44095 10.5243C9.49029 10.5243 9.55608 10.5243 9.60543 10.5243C9.88503 10.5568 10.0988 10.6865 10.2633 10.9135C10.3949 11.1081 10.4771 11.3351 10.5594 11.546C11.135 13.1676 11.8587 14.7243 12.7798 16.1676C13.1416 16.7352 13.5363 17.3027 14.0298 17.7892C14.1778 17.9352 14.3258 18.0649 14.4903 18.1622C14.5561 18.1946 14.6219 18.2271 14.6877 18.2433C14.9508 18.3081 15.1482 18.1946 15.214 17.9352C15.2633 17.7568 15.2798 17.5622 15.2798 17.3676C15.2798 16.1027 15.2798 14.8379 15.2798 13.5892C15.2798 12.8919 15.0659 12.2595 14.589 11.7243C14.5067 11.6433 14.4409 11.546 14.3752 11.4487C14.0956 11.027 14.3752 10.5406 14.8686 10.5081C14.9015 10.5081 14.9508 10.5081 14.9837 10.5081C16.283 10.5081 17.5824 10.5081 18.8817 10.5081C19.408 10.5081 19.6219 10.7027 19.6548 11.2378C19.6712 11.6433 19.6548 12.0487 19.6548 12.4379C19.6548 12.9243 19.6548 13.4108 19.6548 13.8973C19.6548 14.7406 19.6548 15.5676 19.6548 16.4108C19.6548 16.573 19.6548 16.7189 19.7205 16.8649C19.8192 17.1568 20.0166 17.2541 20.3127 17.1406C20.4771 17.0919 20.6087 16.9946 20.7238 16.8973C21.2666 16.4595 21.6942 15.9244 22.1054 15.3568C23.0265 14.0919 23.7501 12.7297 24.3916 11.3027C24.408 11.2541 24.4245 11.2216 24.4409 11.173C24.6383 10.7514 24.9837 10.5243 25.4607 10.5081C26.3817 10.5081 27.2863 10.5081 28.2074 10.5081C28.2896 10.5081 28.3719 10.5081 28.4541 10.5406C28.8324 10.6216 28.9969 10.8649 28.9311 11.2378C28.8653 11.627 28.7008 11.9838 28.5363 12.3406C28.0594 13.3135 27.4673 14.2379 26.8587 15.1622C26.4146 15.8433 25.9376 16.5244 25.4607 17.1892C25.3784 17.3027 25.2962 17.4325 25.2304 17.5784C25.1317 17.773 25.1482 17.9676 25.2469 18.146C25.3126 18.2757 25.4113 18.3892 25.51 18.4865C26.2337 19.2163 26.9574 19.946 27.6317 20.7081C28.1251 21.2757 28.6186 21.8595 29.0133 22.5082C29.1778 22.7676 29.3423 23.0433 29.3916 23.3676C29.4738 23.8541 29.2271 24.1784 28.7337 24.2271V24.2919Z" fill="white"/>
<defs>
<linearGradient id="paint0_linear_1464_5" x1="17.6809" y1="33.0812" x2="17.6809" y2="-5.05947" gradientUnits="userSpaceOnUse">
<stop stop-color="#1DD6A4"/>
<stop offset="1" stop-color="#006B6A"/>
</linearGradient>
</defs>
</svg>
