<svg width="118" height="120" viewBox="0 0 118 120" fill="none" xmlns="http://www.w3.org/2000/svg"><path d="M111.435 58.381c0-28.902-23.592-52.337-52.69-52.337-29.11 0-52.691 23.435-52.691 52.337 0 17.296 8.458 32.632 21.483 42.165h-9.534c-5.21 0-9.481 4.233-9.481 9.418v.053c0 5.175 4.26 9.417 9.481 9.417h81.483c5.21 0 9.481-4.232 9.481-9.417v-.053c0-5.175-4.26-9.418-9.48-9.418h-9.535c13.025-9.533 21.483-24.859 21.483-42.165z" fill="url(#paint0_linear_1229_110)"/><path d="M99.634 120h-83.93c-2.71 0-4.598-2.378-4.598-4.505 0-2.713 2.162-4.337 4.25-4.337a.566.566 0 110 1.132c-1.529 0-3.111 1.205-3.111 3.205 0 1.415 1.318 3.374 3.46 3.374h83.93c5.23 0 9.027-3.772 9.027-8.968s-4.05-8.967-9.028-8.967H45.931c-3.154 0-5.716-2.546-5.716-5.678v-1.498c0-.314.253-.566.57-.566.316 0 .569.252.569.566v1.498c0 2.504 2.056 4.547 4.577 4.547h53.714c5.611 0 10.167 4.536 10.167 10.098 0 5.856-4.272 10.099-10.167 10.099h-.01z" fill="#fff"/><path d="M18.119 110.163c.538.283.812.734.812 1.331 0 .503-.19.911-.58 1.225-.38.315-.876.472-1.487.472-1.055 0-1.762-.44-2.11-1.331l.96-.534c.169.545.56.817 1.15.817.306 0 .538-.063.706-.188a.641.641 0 00.243-.524.641.641 0 00-.243-.524c-.158-.126-.39-.189-.685-.189h-.707v-.984h.538c.285 0 .496-.063.654-.178a.587.587 0 00.232-.493c0-.209-.063-.377-.2-.492-.137-.126-.338-.178-.602-.178-.485 0-.822.241-1.023.712l-.949-.545c.38-.796 1.044-1.194 1.972-1.194.56 0 1.023.147 1.382.451.359.303.538.702.538 1.194s-.2.901-.612 1.194l.01-.042zm6.898 2.169c-.57.565-1.266.848-2.089.848-.822 0-1.518-.283-2.088-.848-.57-.566-.854-1.257-.854-2.075 0-.817.285-1.508.854-2.084.57-.576 1.266-.849 2.088-.849.823 0 1.52.283 2.089.849.57.566.854 1.257.854 2.084 0 .828-.285 1.509-.854 2.075zm-3.396-.755c.348.346.78.524 1.307.524a1.795 1.795 0 001.835-1.844c0-.534-.179-.974-.527-1.33-.348-.346-.78-.524-1.308-.524-.527 0-.949.178-1.307.524-.348.346-.528.796-.528 1.33 0 .535.18.975.528 1.32zm10.389.755c-.57.565-1.266.848-2.089.848s-1.519-.283-2.088-.848c-.57-.566-.854-1.257-.854-2.075 0-.817.284-1.508.854-2.084.57-.576 1.265-.849 2.088-.849.823 0 1.519.283 2.088.849.57.566.855 1.257.855 2.084 0 .828-.285 1.509-.855 2.075zm-3.397-.755c.348.346.78.524 1.308.524a1.795 1.795 0 001.835-1.844c0-.534-.18-.974-.527-1.33-.348-.346-.78-.524-1.308-.524-.517 0-.95.178-1.308.524-.348.346-.527.796-.527 1.33 0 .535.18.975.527 1.32zm9.861-4.137v5.636h-1.118v-4.568h-2.004v4.568h-1.118v-5.636h4.24zm3.754 0c.549 0 1.002.178 1.382.544.37.367.559.817.559 1.341s-.19.974-.559 1.341c-.37.367-.833.545-1.382.545h-.99v1.854h-1.119v-5.636h2.11v.011zm0 2.744a.798.798 0 00.591-.241.84.84 0 00.232-.607.827.827 0 00-.232-.608.815.815 0 00-.59-.241h-.992v1.708h.991v-.011zm7.974 2.148c-.57.565-1.266.848-2.089.848-.822 0-1.518-.283-2.088-.848-.57-.566-.854-1.257-.854-2.075 0-.817.285-1.508.854-2.084.57-.576 1.266-.849 2.088-.849.823 0 1.52.283 2.089.849.57.566.854 1.257.854 2.084 0 .828-.285 1.509-.854 2.075zm-3.396-.755c.348.346.78.524 1.307.524a1.795 1.795 0 001.836-1.844c0-.534-.18-.974-.528-1.33-.348-.346-.78-.524-1.308-.524-.527 0-.949.178-1.307.524-.348.346-.528.796-.528 1.33 0 .535.18.975.528 1.32zm8.311 1.603c-.854 0-1.561-.283-2.11-.848-.558-.566-.833-1.257-.833-2.085 0-.828.275-1.529.834-2.085.558-.555 1.265-.838 2.109-.838.517 0 .991.116 1.424.356.432.241.77.566 1.012.975l-.96.555a1.41 1.41 0 00-.6-.587 1.751 1.751 0 00-.876-.209c-.549 0-.992.167-1.33.513-.337.346-.505.786-.505 1.33 0 .545.169.985.506 1.331.337.346.78.513 1.329.513.327 0 .611-.073.875-.209.264-.147.464-.336.59-.587l.96.555a2.65 2.65 0 01-1.012.975 2.88 2.88 0 01-1.424.356l.01-.011zm7.435-5.74v1.058h-1.53v4.567h-1.117v-4.567h-1.52v-1.058h4.167zm3.322 0c.549 0 1.002.178 1.382.544.37.367.559.817.559 1.341s-.19.974-.559 1.341c-.37.367-.833.545-1.382.545h-.99v1.854h-1.119v-5.636h2.11v.011zm0 2.744a.798.798 0 00.591-.241.84.84 0 00.232-.607.827.827 0 00-.232-.608.815.815 0 00-.59-.241h-.992v1.708h.992v-.011zm6.316 2.892l-.337-1.017h-2.257l-.337 1.017h-1.202l1.982-5.636h1.382l1.993 5.636h-1.223zm-2.245-2.054h1.55l-.78-2.304-.781 2.304h.01zm7.815-3.582h1.108v5.636H77.76v-2.337h-2.109v2.337h-1.118v-5.636h1.118v2.231h2.11v-2.231zm5.432 5.74c-.855 0-1.561-.283-2.11-.848-.559-.566-.833-1.257-.833-2.085 0-.828.274-1.529.833-2.085.56-.555 1.266-.838 2.11-.838.516 0 .99.116 1.423.356.433.241.77.566 1.013.975l-.96.555a1.41 1.41 0 00-.601-.587 1.751 1.751 0 00-.875-.209c-.549 0-.992.167-1.33.513-.337.346-.506.786-.506 1.33 0 .545.17.985.507 1.331.337.346.78.513 1.329.513.327 0 .611-.073.875-.209.264-.147.464-.336.59-.587l.96.555a2.65 2.65 0 01-1.012.975c-.433.24-.907.356-1.424.356l.01-.011zm7.435-5.74v1.058h-1.529v4.567H87.98v-4.567h-1.519v-1.058h4.166zm4.641 2.713c.495.283.748.712.748 1.288 0 .482-.168.87-.506 1.174-.337.303-.76.461-1.255.461h-2.404v-5.636h2.236c.485 0 .896.146 1.223.45.327.304.496.681.496 1.142 0 .461-.18.838-.538 1.131v-.01zm-1.192-1.676h-1.118v1.236h1.118a.6.6 0 00.432-.178.6.6 0 00.18-.44.59.59 0 00-.602-.618h-.01zm.169 3.551a.646.646 0 00.664-.67.62.62 0 00-.19-.472.645.645 0 00-.474-.188h-1.287v1.33h1.287zm7.846.304c-.569.565-1.265.848-2.088.848-.823 0-1.519-.283-2.088-.848-.57-.566-.855-1.257-.855-2.075 0-.817.285-1.508.855-2.084.57-.576 1.265-.849 2.088-.849.823 0 1.519.283 2.088.849.57.566.855 1.257.855 2.084 0 .818-.285 1.509-.855 2.075zm-3.396-.755c.348.346.78.524 1.308.524.527 0 .949-.178 1.308-.524.348-.345.527-.785.527-1.32 0-.534-.179-.974-.527-1.33-.348-.346-.781-.524-1.308-.524s-.95.178-1.308.524c-.348.346-.527.796-.527 1.33 0 .535.18.975.527 1.32zm-59.81-62.844c-.611.493-1.508.744-2.657.744-2.173 0-3.544-.974-4.082-2.902 0-.02-.021-.031-.042-.042h-.053l-2.647 1.52s-.042.052-.032.083c1.108 2.881 3.417 4.348 6.856 4.348 2.003 0 3.649-.524 4.893-1.54 1.245-1.027 1.888-2.378 1.888-4.023 0-2.074-.939-3.583-2.795-4.494 1.392-.911 2.099-2.252 2.099-3.98 0-1.593-.58-2.903-1.73-3.887-1.15-.985-2.668-1.488-4.514-1.488-3.048 0-5.21 1.32-6.423 3.918-.01.031 0 .063.022.084l2.626 1.519s.031.01.052 0c.022 0 .032-.021.043-.042.632-1.645 1.866-2.483 3.68-2.483.981 0 1.74.23 2.257.692.517.45.78 1.079.78 1.854 0 .775-.284 1.404-.854 1.864-.569.472-1.392.702-2.415.702h-1.655s-.064.032-.064.063v2.766s.032.063.064.063h2.278c1.065 0 1.898.251 2.489.743.58.493.875 1.153.875 1.96 0 .806-.306 1.497-.918 1.98l-.02-.022zm19.522-8.328c-1.37-1.351-3.08-2.043-5.062-2.043-1.983 0-3.67.681-5.052 2.043-1.382 1.352-2.078 3.038-2.078 5.018s.696 3.667 2.078 5.018 3.08 2.043 5.052 2.043c1.972 0 3.691-.681 5.062-2.043 1.371-1.351 2.067-3.038 2.067-5.018s-.696-3.666-2.067-5.018zm-2.14 7.972c-.792.786-1.773 1.173-2.922 1.173-1.15 0-2.141-.398-2.922-1.173-.79-.785-1.18-1.78-1.18-2.954 0-1.173.4-2.179 1.18-2.954.791-.786 1.772-1.173 2.922-1.173 1.15 0 2.14.398 2.921 1.173.791.786 1.181 1.78 1.181 2.954 0 1.173-.4 2.179-1.18 2.954zm21.809-2.954c0-1.98-.696-3.666-2.067-5.018-1.37-1.351-3.08-2.043-5.062-2.043-1.983 0-3.67.681-5.052 2.043-1.382 1.352-2.078 3.038-2.078 5.018s.696 3.667 2.078 5.018 3.08 2.043 5.052 2.043c1.972 0 3.691-.681 5.062-2.043 1.371-1.351 2.067-3.038 2.067-5.018zm-4.208 2.954c-.79.786-1.771 1.173-2.921 1.173s-2.141-.398-2.922-1.173c-.79-.785-1.18-1.78-1.18-2.954 0-1.173.4-2.179 1.18-2.954.791-.786 1.772-1.173 2.922-1.173 1.15 0 2.14.398 2.921 1.173.791.786 1.181 1.78 1.181 2.954 0 1.173-.4 2.179-1.18 2.954zM48.05 59.45c.454 0 .876.105 1.245.304.369.199.654.482.844.838 0 .01.02.031.042.031h.053l1.402-.806s.021-.021.032-.042v-.053a3.889 3.889 0 00-1.508-1.435 4.292 4.292 0 00-2.11-.534c-1.255 0-2.31.419-3.132 1.246-.823.828-1.234 1.865-1.234 3.09 0 1.227.411 2.253 1.234 3.08.823.828 1.877 1.247 3.132 1.247.76 0 1.477-.178 2.11-.534a4.01 4.01 0 001.497-1.435c0-.01.01-.032 0-.052 0-.021-.01-.032-.031-.042l-1.403-.807s-.032-.01-.053 0c-.02 0-.031.021-.042.032-.19.345-.474.628-.844.827a2.6 2.6 0 01-1.255.304c-.78 0-1.424-.241-1.898-.734-.475-.481-.717-1.12-.717-1.885 0-.765.242-1.414.717-1.907.474-.482 1.118-.733 1.898-.733h.021zm6.845 6.81h1.634s.064-.032.064-.064v-6.6h2.162s.063-.03.063-.062v-1.55s-.032-.063-.063-.063h-6.086s-.063.031-.063.062v1.55s.032.064.063.064h2.152v6.6s.031.062.063.062h.01zm6.971-1.824c-.263.158-.6.21-1.033.179-.021 0-.032 0-.053.02a.08.08 0 00-.021.053v1.508s.032.063.063.063h.232c1.413 0 2.457-.775 3.09-2.315l2.479-5.95v-.063c0-.02-.032-.031-.053-.031h-1.635s-.052.02-.063.042l-1.571 3.823-1.74-3.823s-.032-.042-.064-.042h-1.635s-.042.01-.052.031a.066.066 0 000 .063l2.69 5.71c-.17.334-.391.575-.644.722l.01.01zm11.127 3.394h1.635s.063-.03.063-.062v-3.122s-.032-.063-.063-.063h-.823v-6.6s-.032-.062-.063-.062h-5.453s-.063.031-.063.062v3.887c0 1.184-.222 2.095-.654 2.713h-.77s-.063.032-.063.063v3.122s.031.063.063.063h1.635s.063-.032.063-.063v-1.509h4.44v1.509s.032.063.064.063h-.011zm-.95-8.275v5.018H69.46c.348-.65.517-1.55.517-2.693v-2.325h2.067zm10.79-1.645H81.59s-.042 0-.053.032l-3.428 4.85v-4.819s-.031-.063-.063-.063H76.41s-.063.032-.063.063v8.213s.032.063.063.063h1.245s.042 0 .053-.032l3.427-4.84v4.809s.032.063.064.063h1.634s.064-.032.064-.063v-8.213s-.032-.063-.064-.063zm8.078 0H87.6a2.73 2.73 0 00-1.994.817 2.681 2.681 0 00-.822 1.97c0 .555.168 1.079.506 1.54.316.44.738.764 1.244.953l-1.972 2.954s-.01.042 0 .063a.06.06 0 00.053.031h1.835s.042-.01.053-.031l1.877-2.818h.833v2.786s.032.063.064.063h1.634s.064-.031.064-.063v-8.212s-.032-.063-.064-.063v.01zm-4.05 1.97a.998.998 0 01.75-.336h1.613v2.295H87.61a.96.96 0 01-.738-.336 1.152 1.152 0 01-.316-.817c0-.314.105-.586.316-.817l-.01.01z" fill="#fff"/><path d="M96.27 42.657a40.1 40.1 0 00-8.723-12.843 40.745 40.745 0 00-12.93-8.663 40.725 40.725 0 00-15.84-3.175 40.725 40.725 0 00-15.842 3.175 40.4 40.4 0 00-12.93 8.663 40.442 40.442 0 00-8.722 12.843 39.983 39.983 0 00-3.196 15.735 40.085 40.085 0 006.191 21.433 40.782 40.782 0 0016 14.572c.116.136.284.22.474.22a.61.61 0 00.612-.607v-8.056l1.92-.44a.677.677 0 00.505-.796.681.681 0 00-.801-.503l-1.624.377V83.03l1.613.126a.67.67 0 00.718-.618.669.669 0 00-.623-.713l-1.719-.125c0-2.054.106-4.714.665-6.516.664.544 1.74 1.477 2.668 2.482.18.2.464.252.707.137.042-.021 3.807-1.76 7.182.052.264.136.59.073.77-.168.02-.02 1.529-1.959 3.227-3.163.264.157.664.408 1.15.764a15.62 15.62 0 00-2.553 6.621c-.422 2.965.085 5.594 1.382 7.228 1.276 1.614 3.311 2.012 5.168 1.016 1.202-.649 2.13-1.78 2.615-3.184.549-1.582.496-3.405-.147-5.29-.981-2.881-2.932-5.008-4.388-6.286-.137-.115-.263-.23-.39-.335a12.372 12.372 0 012.257-2.137c2.173-1.561 4.293-2.18 6.286-1.833 2.584.45 4.05 2.336 4.44 2.912.4.587.707 1.194 1.012 1.791.728 1.446 1.477 2.933 3.344 2.996.063.273.19.608.39.954.358.597 1.054 1.299 2.352 1.519-.454 1.183-1.36 2.702-2.911 3.499a6.208 6.208 0 01-1.318.492c-.021 0-.043 0-.064.01-1.308.325-2.752.262-3.913-.188-1.202-.472-2.025-1.32-2.436-2.514a.61.61 0 00-.77-.377.604.604 0 00-.38.764c.528 1.52 1.614 2.64 3.133 3.237 1.297.514 2.848.618 4.303.325.454.534 1.424 1.508 2.542 1.508h.105c.707-.041 1.255-.408 1.466-.995.243-.68.021-1.498-.612-2.263a7.882 7.882 0 001.561-2.105c.57-1.1.855-2.221.876-2.829.02-.555.052-1.403-.623-1.969-.59-.503-1.54-.618-2.963-.356-.095.02-.19.031-.285.042h-.021c-1.382.157-1.846-.64-2.69-2.316-.305-.597-.643-1.278-1.086-1.927-.453-.67-2.183-2.891-5.23-3.415-2.332-.409-4.757.283-7.204 2.043-.928.66-1.761 1.466-2.51 2.378-.928-.67-1.582-1.017-1.624-1.037a.584.584 0 00-.612.031c-1.519.995-2.91 2.535-3.512 3.258-3.122-1.425-6.296-.461-7.414-.031a30.668 30.668 0 00-3.164-2.818.608.608 0 00-.517-.105.625.625 0 00-.411.335c-.897 1.907-1.045 5.039-1.066 7.668l-3.08-.23a.67.67 0 00-.716.618.669.669 0 00.622.712l3.174.241v1.938l-3.026.702a.677.677 0 00-.507.796.681.681 0 00.802.503l2.731-.629v6.841c-12.93-6.861-20.935-20.071-20.935-34.675 0-21.674 17.75-39.305 39.571-39.305 21.821 0 39.265 17.338 39.571 38.75h-3.923a.56.56 0 00-.56.555.56.56 0 00.56.556h4.493a.59.59 0 00.39-.157.52.52 0 00.158-.388 39.982 39.982 0 00-3.196-15.735v-.042zM78.107 86.593c-.042.126-.169.188-.38.199h-.042c-.411 0-.865-.335-1.234-.681.232-.094.464-.2.686-.304.19-.094.369-.199.538-.314.39.471.506.88.422 1.1h.01zm1.55-7.836c.211.178.211.545.19 1.016 0 .084-.01.178-.031.283-1.224-.178-1.677-.912-1.846-1.425 1.118-.178 1.54 0 1.688.126zM58.68 76.012c1.55 1.3 3.439 3.321 4.356 6.024.549 1.623.601 3.184.148 4.515-.39 1.12-1.108 2.011-2.046 2.514-1.045.566-2.553.67-3.639-.702-1.076-1.351-1.498-3.719-1.128-6.317a14.357 14.357 0 012.31-6.044v.01z" fill="#fff"/><path d="M51.752 80.098h-.18c-.32 0-.58.258-.58.576v1.362c0 .318.26.576.58.576h.18c.32 0 .58-.258.58-.576v-1.362a.578.578 0 00-.58-.576zm-5.378 0h-.18c-.32 0-.58.258-.58.576v1.362c0 .318.26.576.58.576h.18c.32 0 .58-.258.58-.576v-1.362a.578.578 0 00-.58-.576zm22.759-2.787s.939-.471 1.803.136a.615.615 0 00.844-.157.6.6 0 00-.148-.838c-1.487-1.037-3.005-.251-3.069-.22a.604.604 0 00-.253.817.6.6 0 00.823.241v.021z" fill="#fff"/><path d="M9.06 89.421s-.085-.02-.116-.063A57.94 57.94 0 010 58.392c0-1.383.053-2.776.148-4.138 0-.073.073-.115.137-.126.074 0 .126.063.126.136a57.694 57.694 0 008.764 34.958c.043.063.022.147-.042.178a.154.154 0 01-.073.021zm108.166-35.68a.128.128 0 01-.127-.126 57.123 57.123 0 00-3.385-15.284c-.022-.063 0-.147.073-.168.074-.031.148 0 .169.074a57.98 57.98 0 013.407 15.357c0 .073-.053.136-.116.136h-.011l-.01.01zM1.951 44.05H1.92c-.073-.021-.116-.084-.094-.157.179-.681.369-1.362.559-2.022.02-.074.094-.105.168-.084.074.02.106.094.085.168-.2.66-.39 1.34-.56 2.021-.01.063-.073.095-.126.095v-.021zm2.289-6.977h-.053c-.063-.032-.105-.105-.074-.168.169-.408.338-.827.506-1.236a58.403 58.403 0 017.246-12.466c.042-.063.127-.073.19-.021.063.042.074.126.02.178a57.905 57.905 0 00-7.213 12.414L4.356 37a.137.137 0 01-.127.084l.01-.01zm107.554-3.489s-.095-.031-.116-.073a44.071 44.071 0 00-.939-1.875.145.145 0 01.053-.178.146.146 0 01.179.052c.327.618.644 1.257.939 1.886.032.063 0 .146-.063.178-.021 0-.042.01-.053.01zm-6.613-10.706s-.074-.02-.105-.052a61.038 61.038 0 00-4.915-5.542A58.202 58.202 0 0081.567 4.84a57.933 57.933 0 00-6.475-2.284c-.074-.02-.106-.094-.085-.168.022-.073.095-.115.17-.083a58.321 58.321 0 016.496 2.294 58.715 58.715 0 0118.678 12.497 58.782 58.782 0 014.946 5.574.13.13 0 01-.021.178.12.12 0 01-.084.031h-.011zM41.796 2.745a.133.133 0 01-.126-.095.137.137 0 01.084-.167A58.1 58.1 0 0152.1.367c.074-.021.137.042.148.115 0 .073-.042.136-.116.147-3.48.387-6.95 1.1-10.304 2.105h-.042l.01.01zM54.231.44a.128.128 0 01-.127-.126c0-.073.053-.136.127-.136A58.61 58.61 0 0158.734 0h.77c.074 0 .127.063.127.136a.128.128 0 01-.127.126h-.77c-1.498 0-3.006.052-4.503.168v.01z" fill="#fff" opacity=".1"/><path d="M33.919 104.768s-.085 0-.127-.031a53.041 53.041 0 01-19.89-18.459 51.72 51.72 0 01-4.336-8.506.255.255 0 01.148-.335.273.273 0 01.348.147 52.373 52.373 0 004.293 8.422c4.84 7.679 11.654 13.996 19.69 18.28.127.074.18.231.105.357a.277.277 0 01-.231.136v-.011zM6.94 67.862a.268.268 0 01-.263-.22 52.374 52.374 0 01-.823-9.25c0-2.179.137-4.358.4-6.495a.262.262 0 01.296-.23.269.269 0 01.232.293 52.142 52.142 0 00-.39 6.432c0 3.07.274 6.15.812 9.166.021.147-.074.283-.211.304h-.052zm104.496-9.208a.26.26 0 01-.264-.262c0-1.917-.105-3.855-.316-5.74a.268.268 0 01.232-.294c.137 0 .274.084.295.23a53.07 53.07 0 01.317 5.804.26.26 0 01-.264.262zM7.426 47.026h-.064a.27.27 0 01-.2-.315 52.059 52.059 0 012.858-8.778 52.82 52.82 0 012.953-5.877.261.261 0 01.358-.094c.127.073.17.23.096.356a53.54 53.54 0 00-2.922 5.814 51.354 51.354 0 00-2.826 8.695.257.257 0 01-.254.199zm101.5-4.39a.273.273 0 01-.253-.178 50.153 50.153 0 00-1.624-4.326A51.766 51.766 0 0095.827 21.59a52.492 52.492 0 00-9.302-7.354.257.257 0 01-.084-.357.28.28 0 01.369-.083 53.556 53.556 0 019.397 7.427 52.335 52.335 0 0111.337 16.709 52.081 52.081 0 011.635 4.368.275.275 0 01-.169.335c-.031 0-.052.01-.084.01v-.01zm-67.92-33.24a.269.269 0 01-.253-.177.26.26 0 01.158-.336 52.853 52.853 0 0110.283-2.535.268.268 0 01.295.22.26.26 0 01-.221.294A52.353 52.353 0 0041.09 9.376c-.031.01-.063.01-.084.01v.01zm31.176-1.35h-.064a53.15 53.15 0 00-5.136-1.07.263.263 0 01-.221-.303.265.265 0 01.306-.22c1.74.272 3.49.64 5.188 1.08a.275.275 0 01.19.324.269.269 0 01-.253.199l-.01-.01z" fill="#fff" opacity=".3"/><path d="M105.445 59.178a.794.794 0 01-.791-.786 44.943 44.943 0 00-3.544-17.578.783.783 0 01.422-1.027.792.792 0 011.033.419c2.437 5.772 3.66 11.89 3.66 18.186 0 .44-.359.786-.791.786h.011zM99.37 36.267a.785.785 0 01-.685-.398 46.032 46.032 0 00-4.725-6.757.78.78 0 01.095-1.11.793.793 0 011.118.094 47.896 47.896 0 014.894 6.987.774.774 0 01-.296 1.069.753.753 0 01-.39.105l-.01.01zm-6.686-8.957a.795.795 0 01-.58-.251l-.886-.912a46.285 46.285 0 00-5.316-4.535.784.784 0 01-.168-1.1.797.797 0 011.107-.168 47.521 47.521 0 015.495 4.693c.316.304.622.618.918.943a.777.777 0 01-.032 1.11.795.795 0 01-.548.22h.01zM47.618 14.142a.797.797 0 01-.77-.597.791.791 0 01.58-.953 47.338 47.338 0 017.067-1.163c.432-.031.822.283.854.712a.787.787 0 01-.717.849 45.6 45.6 0 00-6.834 1.131c-.064.01-.127.021-.19.021h.01zm20.935-.314c-.052 0-.105 0-.168-.021a47.693 47.693 0 00-5.464-.817.786.786 0 01-.717-.849.796.796 0 01.855-.712 46.57 46.57 0 015.653.849.794.794 0 01.611.932.796.796 0 01-.77.618zM19.437 84.12a.783.783 0 01-.665-.356l-.232-.366a46.505 46.505 0 01-6.718-18.123.783.783 0 01.664-.89c.433-.053.834.23.897.66a45.135 45.135 0 006.486 17.525l.221.346a.791.791 0 01-.674 1.215l.02-.01zm-5.58-37.545c-.073 0-.147 0-.21-.031a.79.79 0 01-.549-.974 47.4 47.4 0 013.07-7.952.783.783 0 011.054-.356c.39.189.559.66.358 1.048a42.36 42.36 0 00-1.065 2.326 46.118 46.118 0 00-1.898 5.353.787.787 0 01-.76.576v.01zm4.325-10.287a.753.753 0 01-.39-.105.776.776 0 01-.296-1.068 46.296 46.296 0 014.894-6.988.793.793 0 011.118-.094.78.78 0 01.095 1.11 45.252 45.252 0 00-4.725 6.758.798.798 0 01-.686.398l-.01-.01zm8.669-10.926a.795.795 0 01-.58-.252.787.787 0 01.031-1.11 47.277 47.277 0 0113.996-9.051c.991-.42 2.004-.807 3.016-1.152a.806.806 0 011.013.481.79.79 0 01-.485 1.006c-.97.335-1.952.702-2.911 1.11a45.805 45.805 0 00-13.532 8.748.777.777 0 01-.538.21l-.01.01zm10.146 74.818a.783.783 0 01-.37-.094 47.396 47.396 0 01-14.48-11.723.79.79 0 01.106-1.11.804.804 0 011.118.105 45.649 45.649 0 0013.995 11.324.77.77 0 01.327 1.058.8.8 0 01-.696.419v.021z" opacity=".5" fill="#fff"/><path d="M51.806 83.848a.61.61 0 00-.612.608c0 .43-.348.785-.791.785a.78.78 0 01-.791-.785.61.61 0 00-.612-.608.61.61 0 00-.612.608c0 .43-.348.785-.79.785a.78.78 0 01-.792-.785.61.61 0 00-.611-.608.61.61 0 00-.612.608c0 1.1.897 1.99 2.004 1.99.538 0 1.033-.22 1.392-.566.359.346.854.566 1.392.566 1.108 0 2.004-.89 2.004-1.99a.61.61 0 00-.612-.608h.043z" fill="#fff"/><defs><linearGradient id="paint0_linear_1229_110" x1="58.745" y1="6.044" x2="58.745" y2="119.434" gradientUnits="userSpaceOnUse"><stop stop-color="#1DD6A4"/><stop offset="1" stop-color="#006B6A"/></linearGradient></defs></svg>