<svg width="16" height="16" viewBox="0 0 16 16" fill="none" xmlns="http://www.w3.org/2000/svg"><path d="M13.417 10.518c-.918-.781-1.85-1.254-2.757-.474l-.542.47c-.396.343-1.133 1.941-3.981-1.317-2.848-3.253-1.153-3.76-.757-4.099l.545-.471c.902-.782.562-1.765-.09-2.778l-.392-.613C4.79.226 4.078-.438 3.173.342l-.489.425c-.4.29-1.517 1.23-1.788 3.019-.326 2.145.703 4.602 3.06 7.297 2.356 2.697 4.661 4.052 6.846 4.028 1.815-.02 2.91-.988 3.254-1.34l.49-.425c.903-.78.342-1.573-.577-2.356l-.552-.472z" fill="#00D3B3"/></svg>