<svg xmlns="http://www.w3.org/2000/svg"><symbol id="hero-icon-01" viewBox="0 0 32 32"><path d="M31.57 2.88h-5.918L18.356.5a3.102 3.102 0 00-2.643.34l-4.396 2.825a.429.429 0 10.463.722l4.396-2.82a2.242 2.242 0 011.914-.243l7.363 2.395a.42.42 0 00.133.021h5.556v7.21H27.95a.43.43 0 00-.381.232 4.317 4.317 0 01-2.091 1.802v-1.929c.688-.293 1.422-.804 1.89-1.694a.43.43 0 00-.76-.402c-.816 1.56-2.844 1.63-2.856 1.63-2.717 0-3.501-1.897-3.533-1.976a.43.43 0 00-.4-.275h-4.033a1.146 1.146 0 110-2.291H20.6a.43.43 0 100-.859h-4.813a2.004 2.004 0 100 4.009h3.764c.358.658 1.507 2.25 4.211 2.25a4.63 4.63 0 00.858-.119v6.363a.634.634 0 01-.633.634H1.834a.635.635 0 01-.634-.632V6.68a.634.634 0 01.633-.633h10.946a.43.43 0 100-.859H1.834A1.497 1.497 0 00.342 6.68v11.013a1.497 1.497 0 001.492 1.492h22.152a1.497 1.497 0 001.492-1.492v-3.8c1.539-.49 2.4-1.6 2.715-2.086h3.377a.43.43 0 00.43-.428V3.31a.43.43 0 00-.43-.43z"/><path d="M3.252 14.447V9.922a2.3 2.3 0 001.824-1.824h7.331a.43.43 0 000-.859h-7.72a.43.43 0 00-.429.43 1.437 1.437 0 01-1.435 1.439.43.43 0 00-.427.426v5.302a.429.429 0 00.43.43A1.437 1.437 0 014.261 16.7a.429.429 0 00.43.429H21.13a.43.43 0 00.43-.429 1.437 1.437 0 011.435-1.436.43.43 0 00.43-.429v-1.94a.43.43 0 10-.86 0v1.551a2.301 2.301 0 00-1.824 1.824H5.076a2.301 2.301 0 00-1.824-1.824z" fill="#FBD846"/><path d="M12.343 10.774h1.033a.43.43 0 000-.859h-.338V9.64a.43.43 0 10-.858 0v.287a1.347 1.347 0 00.163 2.69h.531a.492.492 0 110 .984h-1.031a.43.43 0 100 .859h.337v.276a.43.43 0 00.858 0v-.289a1.347 1.347 0 00-.164-2.69h-.531a.49.49 0 01-.36-.845.492.492 0 01.36-.137zm-4.465 1.109a.431.431 0 00-.117.384.375.375 0 00.025.08c.01.026.023.051.04.074a.394.394 0 00.117.119.44.44 0 00.543-.054.447.447 0 00.093-.14.395.395 0 00.032-.164.429.429 0 00-.733-.299zm9.402.541a.426.426 0 00.713 0 .368.368 0 00.04-.075.387.387 0 00.034-.162.43.43 0 10-.86 0 .455.455 0 00.033.162.45.45 0 00.04.075z" fill="#FBD846"/><path d="M28.11 18.928a2.034 2.034 0 00-2.744.211l-2.715 2.935a.428.428 0 00.011.62.43.43 0 00.619-.037l2.715-2.935a1.17 1.17 0 011.876.23 1.166 1.166 0 01-.118 1.3l-4.727 5.78a2.165 2.165 0 01-1.37.775l-9.149 1.324a3.062 3.062 0 00-2.228 1.54l-.25.45H1.614l4.36-6.443A6.133 6.133 0 0111.728 22a9.747 9.747 0 012.166.479c.476.17.978.258 1.484.26h4.376a1.267 1.267 0 011.265 1.265 1.367 1.367 0 01-1.366 1.365h-4.008c-.657 0-1.292.23-1.797.649l-.942.781a.43.43 0 00.55.661l.94-.781c.35-.29.79-.45 1.244-.45h4.012a2.227 2.227 0 002.224-2.223 2.127 2.127 0 00-2.124-2.124h-4.374a3.601 3.601 0 01-1.197-.212 10.599 10.599 0 00-2.358-.524 6.99 6.99 0 00-6.562 3.049L.45 31.306a.43.43 0 00.356.674h9.478a.43.43 0 00.374-.225l.374-.673a2.202 2.202 0 011.602-1.107l9.15-1.319a3.023 3.023 0 001.913-1.08l4.726-5.781a2.02 2.02 0 00-.308-2.867h-.004z"/></symbol><symbol id="hero-icon-02" viewBox="0 0 33 33"><path d="M.342 32.627h32.194L.342.433v32.194zm1-4.499H4.34v-1H1.341V24.13h2v-1h-2v-2.998h3v-1h-3v-2.999h2v-1h-2v-2.998h3v-1h-3v-8.29l28.782 28.782H1.34V28.13z" fill="#333"/><path d="M6.84 14.427v13.701h13.7L6.84 14.427zm.999 2.413l10.289 10.289H7.838V16.84z" fill="#333"/><path d="M32.518 23.818l-1.236-4.941L12.838.433 9.133 4.138l18.444 18.444 4.94 1.236zm-1.375-1.375l-3.055-.763L13.545 7.137l2.292-2.292L30.38 19.388l.764 3.055zM12.838 1.846l2.292 2.292-2.292 2.292-2.292-2.292 2.292-2.292z" fill="#FBD846"/></symbol><symbol id="hero-icon-03" viewBox="0 0 32 33"><path d="M31.216 30.823H.649l.648.51V1.14l-.648.51h30.567l-.65-.51v30.194c0 .66 1.298.66 1.298 0V1.14c0-.279-.294-.51-.648-.51H.649C.294.629 0 .86 0 1.139v30.194c0 .279.294.51.649.51h30.567c.839 0 .839-1.02 0-1.02z" fill="#333"/><path d="M15.35 1.127V31.51c0 .664 1.303.664 1.303 0V1.127c0-.664-1.303-.664-1.303 0z" fill="#FBD846"/><path d="M.651 1.886h30.697c.843 0 .843-1.303 0-1.303H.651c-.842 0-.842 1.303 0 1.303z" fill="#333"/><path d="M31.349 30.724H.65l.652.651V1.226l-.652.651h30.697l-.65-.651v30.149c0 .843 1.302.843 1.302 0V1.226a.656.656 0 00-.651-.652H.65a.656.656 0 00-.65.652v30.149c0 .357.295.652.651.652h30.697c.843 0 .843-1.303 0-1.303z" fill="#333"/><path d="M17.64 14.915v2.78c0 .843 1.304.843 1.304 0v-2.78c0-.833-1.303-.833-1.303 0zm-4.583 0v2.78c0 .843 1.303.843 1.303 0v-2.78c0-.833-1.303-.833-1.303 0z" fill="#FBD846"/></symbol><symbol id="hero-icon-04" viewBox="0 0 33 33"><path d="M18.585 16.755c0-.998-.687-1.83-1.61-2.07V9.242a.536.536 0 10-1.073 0v5.441a2.144 2.144 0 00-1.533 1.534h-3.832a.536.536 0 100 1.073h3.832a2.144 2.144 0 002.07 1.61 2.149 2.149 0 002.146-2.146zm-2.146 1.073a1.074 1.074 0 010-2.147 1.074 1.074 0 010 2.147zm0-11.805c.296 0 .537-.24.537-.537V4.95a.536.536 0 10-1.074 0v.536c0 .297.24.537.537.537zm-.537 21.999v.537a.536.536 0 101.074 0v-.537a.536.536 0 10-1.074 0zM28.243 17.29a.536.536 0 100-1.072h-.537a.536.536 0 100 1.073h.537zM4.634 16.218a.536.536 0 100 1.073h.537a.536.536 0 100-1.073h-.537z"/><path d="M24.406 9.323a.535.535 0 00.38-.157l.379-.38a.536.536 0 10-.76-.759l-.379.38a.536.536 0 00.38.916zM8.091 24.343l-.379.38a.536.536 0 10.759.758l.38-.38a.536.536 0 10-.76-.758zM8.85 8.407l-.38-.38a.536.536 0 10-.758.76l.38.379a.535.535 0 00.758 0 .536.536 0 000-.76z" fill="#FBD846"/><path d="M16.439.723C7.563.723.342 7.943.342 16.82c0 8.876 7.22 16.097 16.097 16.097 1.919 0 3.798-.336 5.588-.998a.537.537 0 10-.373-1.006c-1.67.617-3.424.93-5.215.93-8.284 0-15.024-6.74-15.024-15.023 0-8.284 6.74-15.024 15.024-15.024 8.284 0 15.024 6.74 15.024 15.024a14.99 14.99 0 01-.931 5.215.537.537 0 001.006.372 16.04 16.04 0 00.998-5.587c0-8.876-7.221-16.097-16.097-16.097z"/><path d="M27.17 22.776v-.591a.536.536 0 10-1.073 0v.593a2.679 2.679 0 00-1.512.895c-.327.387-.48.883-.426 1.397.055.525.326 1.012.742 1.336l1.196.93v2.918a1.607 1.607 0 01-1.073-1.511.536.536 0 10-1.073 0c0 1.295.924 2.38 2.146 2.629v.471a.536.536 0 101.074 0v-.473a2.678 2.678 0 001.512-.895c.328-.389.48-.884.426-1.398a1.957 1.957 0 00-.742-1.335l-1.196-.93v-2.919a1.608 1.608 0 011.073 1.511.536.536 0 101.073 0 2.688 2.688 0 00-2.146-2.628zm.538 5.813a.881.881 0 01.333.6c.023.22-.04.43-.177.593-.187.22-.428.375-.693.47V28.17l.537.419zm-2.148-3.03a.881.881 0 01-.333-.601.784.784 0 01.177-.592c.187-.22.428-.375.693-.47v2.08l-.537-.417z" fill="#FBD846"/></symbol><symbol id="hero-icon-05" viewBox="0 0 28 34"><g stroke-width="1.5"><path d="M25.473 17.206v14.1c0 .664-.456 1.174-1.049 1.174H3.305c-.593 0-1.05-.51-1.05-1.174v-14.1" stroke="#333"/><path fill-rule="evenodd" clip-rule="evenodd" d="M26.387 15.98c0 .664-.457 1.175-1.05 1.175H2.347c-.592 0-1.048-.511-1.048-1.175v-5.262c0-.664.456-1.175 1.049-1.175h22.99c.592 0 1.049.51 1.049 1.175v5.262z" stroke="#333"/><path fill-rule="evenodd" clip-rule="evenodd" d="M20.594 5.814c-1.003 1.124-5.565 4.393-6.614 3.27-1.003-1.125 1.916-6.284 2.92-7.408 1.003-1.124 2.645-1.124 3.694 0 1.004 1.124 1.004 3.014 0 4.138z" stroke="#FBD846"/><path fill-rule="evenodd" clip-rule="evenodd" d="M7.046 5.814c1.003 1.123 5.61 4.444 6.614 3.32 1.003-1.124-1.916-6.283-2.965-7.407-1.004-1.124-2.646-1.124-3.65 0-1.003 1.072-1.003 2.912 0 4.087z" stroke="#FBD846"/><path d="M10.695 13.681s.684-2.35 3.33-3.525V32.43m-.183-22.223s1.049 4.087 4.698 4.7" stroke="#FBD846"/></g></symbol><symbol id="popular-plus" viewBox="0 0 21 21"><path d="M.693 10.5h19.615M10.5.694v19.615" stroke-width="2" stroke-miterlimit="10"/></symbol></svg>