<svg width="36" height="35" viewBox="0 0 36 35" fill="none" xmlns="http://www.w3.org/2000/svg"><path d="M18.32 34.865c9.764 0 17.68-7.805 17.68-17.433C36 7.806 28.084 0 18.32 0 8.553 0 .637 7.805.637 17.433c0 9.627 7.916 17.432 17.681 17.432z" fill="url(#paint0_linear_1464_7)"/><path d="M28.237 9.519c0-.114 0-.243-.032-.357-.083-.405-.445-.875-1.037-.794a1.71 1.71 0 00-.41.113l-10.083 3.843c-2.714 1.038-5.428 2.06-8.142 3.098-.51.194-1.02.356-1.496.6a1.135 1.135 0 00-.51.405.5.5 0 00-.099.211c-.016.081 0 .146 0 .227a.3.3 0 00.115.195.42.42 0 00.198.13c.148.064.312.129.477.162 1.595.486 3.19.956 4.786 1.443.05.016.115.032.164.016a.24.24 0 00.148-.065l11.152-6.924c.115-.065.23-.146.329-.211a.667.667 0 01.46-.097c.148.032.197.13.099.26a.773.773 0 01-.165.161l-6.628 5.968-2.55 2.303-.049.048c0 .016-.016.049-.016.065l-.099 1.33-.28 3.551c0 .13 0 .146.132.13h.05c.345-.081.658-.26.904-.503.757-.713 1.513-1.443 2.27-2.157.066-.065.115-.08.197 0l4.737 3.47c.214.147.444.26.707.325a.802.802 0 00.642-.032.923.923 0 00.444-.454c.082-.146.131-.309.164-.454.148-.682.296-1.363.444-2.028.477-2.221.954-4.459 1.448-6.68.444-2.093.904-4.2 1.349-6.293a4.02 4.02 0 00.164-.989l.016-.016z" fill="#fff"/><defs><linearGradient id="paint0_linear_1464_7" x1="18.319" y1="33.081" x2="18.319" y2="-5.059" gradientUnits="userSpaceOnUse"><stop stop-color="#1DD6A4"/><stop offset="1" stop-color="#006B6A"/></linearGradient></defs></svg>