<svg width="36" height="35" viewBox="0 0 36 35" fill="none" xmlns="http://www.w3.org/2000/svg"><path d="M17.68 34.865c9.766 0 17.682-7.805 17.682-17.433C35.362 7.806 27.446 0 17.68 0S0 7.805 0 17.433c0 9.627 7.916 17.432 17.68 17.432z" fill="url(#paint0_linear_1464_5)"/><path d="M28.734 24.292c-.115 0-.214.016-.33.016h-2.417c-.444 0-.806-.13-1.118-.421-.33-.309-.625-.65-.938-.973-.641-.698-1.283-1.379-2.04-1.963-.345-.26-.69-.518-1.101-.68a1.501 1.501 0 00-.757-.082.384.384 0 00-.329.292 1.24 1.24 0 00-.066.422c-.033.778 0 1.54 0 2.319v.308c-.016.275-.164.47-.427.584-.263.113-.56.145-.84.162-1.627.113-3.124-.308-4.522-1.087-1.447-.794-2.632-1.88-3.602-3.194-1.2-1.606-2.253-3.292-3.109-5.109-.427-.924-.806-1.848-1.069-2.837a7.83 7.83 0 01-.131-.6c-.099-.6.164-.925.79-.925h2.876c.28.033.494.163.658.39.132.194.214.421.296.632.576 1.622 1.3 3.178 2.22 4.622.363.567.757 1.135 1.25 1.621.149.146.297.276.461.373a.972.972 0 00.198.081c.263.065.46-.048.526-.308a2.15 2.15 0 00.066-.567v-3.779c0-.697-.214-1.33-.691-1.865a1.76 1.76 0 01-.214-.275c-.28-.422 0-.908.494-.94h4.013c.526 0 .74.194.773.729.016.405 0 .81 0 1.2v3.973c0 .162 0 .308.066.454.098.292.296.39.592.276.164-.05.296-.146.41-.244.544-.438.971-.973 1.382-1.54.921-1.265 1.645-2.627 2.287-4.054.016-.049.032-.081.049-.13.197-.422.543-.649 1.02-.665h2.746c.083 0 .165 0 .247.033.378.08.543.324.477.697-.066.389-.23.746-.395 1.103-.477.973-1.069 1.897-1.677 2.821a55.751 55.751 0 01-1.398 2.027 2.224 2.224 0 00-.23.39.58.58 0 00.016.567c.066.13.164.243.263.34.724.73 1.447 1.46 2.122 2.222.493.568.987 1.152 1.381 1.8.165.26.33.535.379.86.082.486-.165.81-.658.86v.064z" fill="#fff"/><defs><linearGradient id="paint0_linear_1464_5" x1="17.681" y1="33.081" x2="17.681" y2="-5.059" gradientUnits="userSpaceOnUse"><stop stop-color="#1DD6A4"/><stop offset="1" stop-color="#006B6A"/></linearGradient></defs></svg>