<svg width="36" height="35" viewBox="0 0 36 35" fill="none" xmlns="http://www.w3.org/2000/svg"><path d="M18 34.865c9.765 0 17.681-7.805 17.681-17.433C35.681 7.806 27.765 0 18.001 0 8.234 0 .318 7.805.318 17.433.32 27.06 8.235 34.864 18 34.864z" fill="url(#paint0_linear_1464_6)"/><path d="M8.888 27.697c-.757.244-1.464-.47-1.2-1.2.41-1.216.953-2.789 1.282-3.778v-.032c.033-.05 0-.082 0-.13a9.876 9.876 0 01-1.2-2.92 11.781 11.781 0 01-.247-1.523c-.05-.503-.05-1.022-.033-1.525a10.29 10.29 0 011.02-3.94 10.697 10.697 0 016.546-5.579 10.57 10.57 0 011.727-.373 10.74 10.74 0 011.907-.08c2.352.129 4.458.907 6.283 2.4 1.678 1.361 2.83 3.08 3.47 5.14.182.584.297 1.2.379 1.8.066.551.082 1.102.066 1.67-.115 2.335-.905 4.427-2.418 6.243-1.48 1.768-3.339 2.935-5.592 3.535a10.75 10.75 0 01-1.579.276c-.543.049-1.102.065-1.661.049a10.548 10.548 0 01-4.523-1.249c-.066-.032-.148-.049-.214-.016-1.053.34-2.73.86-4.013 1.265v-.033zm.97-2.124l3.355-1.054c.066-.016.1 0 .149.016 1.365.876 2.861 1.33 4.49 1.395a8.637 8.637 0 002.236-.195c2.056-.454 3.75-1.492 5.066-3.097 1.217-1.476 1.859-3.179 1.957-5.076a8.887 8.887 0 00-.213-2.384c-.543-2.205-1.76-3.973-3.652-5.27C21.931 9 20.45 8.498 18.84 8.384a8.214 8.214 0 00-1.547.032 9.35 9.35 0 00-1.496.276c-3.635 1.005-6.267 4.2-6.48 7.93-.05.746 0 1.475.147 2.205a8.768 8.768 0 001.48 3.405c.034.05.05.098.017.163-.28.827-1.085 3.178-1.085 3.178h-.017z" fill="#fff"/><path d="M12.836 14.643c0-.892.296-1.621.904-2.221.05-.049.099-.098.148-.13.247-.227.527-.34.872-.292.164.016.329.033.493.033.132 0 .247.064.33.162a.88.88 0 01.164.324c.214.584.427 1.151.658 1.735.033.097.082.195.115.292a.562.562 0 01-.017.487c-.131.259-.312.454-.51.664-.082.098-.18.179-.263.26-.148.162-.18.292-.065.486a8.14 8.14 0 001.348 1.833 6.944 6.944 0 001.974 1.378c.099.049.214.097.312.146.033 0 .05.032.083.032.18.065.329.05.46-.097.313-.34.642-.68.921-1.054l.099-.097c.082-.065.18-.097.28-.065.115.032.23.065.329.13l1.233.632c.247.13.494.26.74.406.066.032.115.08.181.113.05.032.082.097.099.162.016.162 0 .34-.033.503-.033.21-.099.405-.165.6-.065.178-.164.34-.312.486-.28.276-.625.487-.987.65a1.979 1.979 0 01-.674.177c-.115 0-.23.033-.362.05-.23.032-.444 0-.674-.066-.412-.097-.806-.243-1.201-.389-.428-.178-.855-.34-1.267-.535-.74-.34-1.381-.827-1.99-1.362-.855-.779-1.562-1.67-2.17-2.627-.182-.276-.363-.535-.51-.827a5.395 5.395 0 01-.494-1.33c-.05-.227-.066-.454-.082-.633l.033-.016z" fill="#fff"/><defs><linearGradient id="paint0_linear_1464_6" x1="18" y1="33.081" x2="18" y2="-5.059" gradientUnits="userSpaceOnUse"><stop stop-color="#1DD6A4"/><stop offset="1" stop-color="#006B6A"/></linearGradient></defs></svg>